%FSLAX45Y45*%
G04 Gerber Fmt 4.5, Leading zero omitted, Abs format (unit mm)*
G04 Created by KiCad (PCBNEW (5.1.7)-1) date 2021-09-17 17:17:59*
%MOMM*%
%LPD*%
G01*
G04 APERTURE LIST*
%TA.AperFunction,Profile*%
%ADD10C,0.050000*%
%TD*%
%ADD11C,0.200000*%
%ADD12C,0.300000*%
G04 APERTURE END LIST*
D10*
X7479200Y-11657550D02*
X7479200Y-11817550D01*
X6979200Y-11657550D02*
X7479200Y-11657550D01*
X7479200Y-11817550D02*
X21839200Y-11817550D01*
X6979200Y-10557550D02*
X6979200Y-11657550D01*
X6579200Y-10557550D02*
X6979200Y-10557550D01*
X6579200Y-4557550D02*
X6579200Y-10557550D01*
X23379200Y-4557550D02*
X6579200Y-4557550D01*
X23369200Y-10457550D02*
X23379200Y-4557550D01*
X21839200Y-10457550D02*
X23369200Y-10457550D01*
X21839200Y-11817550D02*
X21839200Y-10457550D01*
D11*
X13933700Y-4791050D02*
X14218700Y-5076050D01*
X14218700Y-4791050D02*
X13933700Y-5076050D01*
X22933700Y-4791050D02*
X23218700Y-5076050D01*
X23218700Y-4791050D02*
X22933700Y-5076050D01*
X12546700Y-11415100D02*
X12831700Y-11700100D01*
X12831700Y-11415100D02*
X12546700Y-11700100D01*
X21436700Y-11415100D02*
X21721700Y-11700100D01*
X21721700Y-11415100D02*
X21436700Y-11700100D01*
D12*
X6863128Y-12285764D02*
X6863128Y-11985764D01*
X6934557Y-11985764D01*
X6977414Y-12000050D01*
X7005986Y-12028621D01*
X7020271Y-12057193D01*
X7034557Y-12114336D01*
X7034557Y-12157193D01*
X7020271Y-12214336D01*
X7005986Y-12242907D01*
X6977414Y-12271479D01*
X6934557Y-12285764D01*
X6863128Y-12285764D01*
X7163128Y-12285764D02*
X7163128Y-12085764D01*
X7163128Y-12142907D02*
X7177414Y-12114336D01*
X7191700Y-12100050D01*
X7220271Y-12085764D01*
X7248843Y-12085764D01*
X7348843Y-12285764D02*
X7348843Y-12085764D01*
X7348843Y-11985764D02*
X7334557Y-12000050D01*
X7348843Y-12014336D01*
X7363128Y-12000050D01*
X7348843Y-11985764D01*
X7348843Y-12014336D01*
X7534557Y-12285764D02*
X7505986Y-12271479D01*
X7491700Y-12242907D01*
X7491700Y-11985764D01*
X7691700Y-12285764D02*
X7663128Y-12271479D01*
X7648843Y-12242907D01*
X7648843Y-11985764D01*
X8034557Y-12285764D02*
X8034557Y-11985764D01*
X8134557Y-12200050D01*
X8234557Y-11985764D01*
X8234557Y-12285764D01*
X8505986Y-12285764D02*
X8505986Y-12128621D01*
X8491700Y-12100050D01*
X8463128Y-12085764D01*
X8405986Y-12085764D01*
X8377414Y-12100050D01*
X8505986Y-12271479D02*
X8477414Y-12285764D01*
X8405986Y-12285764D01*
X8377414Y-12271479D01*
X8363128Y-12242907D01*
X8363128Y-12214336D01*
X8377414Y-12185764D01*
X8405986Y-12171479D01*
X8477414Y-12171479D01*
X8505986Y-12157193D01*
X8648843Y-12085764D02*
X8648843Y-12385764D01*
X8648843Y-12100050D02*
X8677414Y-12085764D01*
X8734557Y-12085764D01*
X8763128Y-12100050D01*
X8777414Y-12114336D01*
X8791700Y-12142907D01*
X8791700Y-12228621D01*
X8777414Y-12257193D01*
X8763128Y-12271479D01*
X8734557Y-12285764D01*
X8677414Y-12285764D01*
X8648843Y-12271479D01*
X8920271Y-12257193D02*
X8934557Y-12271479D01*
X8920271Y-12285764D01*
X8905986Y-12271479D01*
X8920271Y-12257193D01*
X8920271Y-12285764D01*
X8920271Y-12100050D02*
X8934557Y-12114336D01*
X8920271Y-12128621D01*
X8905986Y-12114336D01*
X8920271Y-12100050D01*
X8920271Y-12128621D01*
X6291700Y-12637550D02*
X6576700Y-12922550D01*
X6576700Y-12637550D02*
X6291700Y-12922550D01*
X6848843Y-12644336D02*
X6863128Y-12630050D01*
X6891700Y-12615764D01*
X6963128Y-12615764D01*
X6991700Y-12630050D01*
X7005986Y-12644336D01*
X7020271Y-12672907D01*
X7020271Y-12701479D01*
X7005986Y-12744336D01*
X6834557Y-12915764D01*
X7020271Y-12915764D01*
X7148843Y-12887193D02*
X7163128Y-12901479D01*
X7148843Y-12915764D01*
X7134557Y-12901479D01*
X7148843Y-12887193D01*
X7148843Y-12915764D01*
X7334557Y-12744336D02*
X7305986Y-12730050D01*
X7291700Y-12715764D01*
X7277414Y-12687193D01*
X7277414Y-12672907D01*
X7291700Y-12644336D01*
X7305986Y-12630050D01*
X7334557Y-12615764D01*
X7391700Y-12615764D01*
X7420271Y-12630050D01*
X7434557Y-12644336D01*
X7448843Y-12672907D01*
X7448843Y-12687193D01*
X7434557Y-12715764D01*
X7420271Y-12730050D01*
X7391700Y-12744336D01*
X7334557Y-12744336D01*
X7305986Y-12758621D01*
X7291700Y-12772907D01*
X7277414Y-12801479D01*
X7277414Y-12858621D01*
X7291700Y-12887193D01*
X7305986Y-12901479D01*
X7334557Y-12915764D01*
X7391700Y-12915764D01*
X7420271Y-12901479D01*
X7434557Y-12887193D01*
X7448843Y-12858621D01*
X7448843Y-12801479D01*
X7434557Y-12772907D01*
X7420271Y-12758621D01*
X7391700Y-12744336D01*
X7720271Y-12615764D02*
X7577414Y-12615764D01*
X7563128Y-12758621D01*
X7577414Y-12744336D01*
X7605986Y-12730050D01*
X7677414Y-12730050D01*
X7705986Y-12744336D01*
X7720271Y-12758621D01*
X7734557Y-12787193D01*
X7734557Y-12858621D01*
X7720271Y-12887193D01*
X7705986Y-12901479D01*
X7677414Y-12915764D01*
X7605986Y-12915764D01*
X7577414Y-12901479D01*
X7563128Y-12887193D01*
X7863128Y-12915764D02*
X7863128Y-12715764D01*
X7863128Y-12744336D02*
X7877414Y-12730050D01*
X7905986Y-12715764D01*
X7948843Y-12715764D01*
X7977414Y-12730050D01*
X7991700Y-12758621D01*
X7991700Y-12915764D01*
X7991700Y-12758621D02*
X8005986Y-12730050D01*
X8034557Y-12715764D01*
X8077414Y-12715764D01*
X8105986Y-12730050D01*
X8120271Y-12758621D01*
X8120271Y-12915764D01*
X8263128Y-12915764D02*
X8263128Y-12715764D01*
X8263128Y-12744336D02*
X8277414Y-12730050D01*
X8305986Y-12715764D01*
X8348843Y-12715764D01*
X8377414Y-12730050D01*
X8391700Y-12758621D01*
X8391700Y-12915764D01*
X8391700Y-12758621D02*
X8405986Y-12730050D01*
X8434557Y-12715764D01*
X8477414Y-12715764D01*
X8505986Y-12730050D01*
X8520271Y-12758621D01*
X8520271Y-12915764D01*
X9105986Y-12601479D02*
X8848843Y-12987193D01*
X9491700Y-12615764D02*
X9520271Y-12615764D01*
X9548843Y-12630050D01*
X9563128Y-12644336D01*
X9577414Y-12672907D01*
X9591700Y-12730050D01*
X9591700Y-12801479D01*
X9577414Y-12858621D01*
X9563128Y-12887193D01*
X9548843Y-12901479D01*
X9520271Y-12915764D01*
X9491700Y-12915764D01*
X9463128Y-12901479D01*
X9448843Y-12887193D01*
X9434557Y-12858621D01*
X9420271Y-12801479D01*
X9420271Y-12730050D01*
X9434557Y-12672907D01*
X9448843Y-12644336D01*
X9463128Y-12630050D01*
X9491700Y-12615764D01*
X9720271Y-12887193D02*
X9734557Y-12901479D01*
X9720271Y-12915764D01*
X9705986Y-12901479D01*
X9720271Y-12887193D01*
X9720271Y-12915764D01*
X10020271Y-12915764D02*
X9848843Y-12915764D01*
X9934557Y-12915764D02*
X9934557Y-12615764D01*
X9905986Y-12658621D01*
X9877414Y-12687193D01*
X9848843Y-12701479D01*
X10305986Y-12915764D02*
X10134557Y-12915764D01*
X10220271Y-12915764D02*
X10220271Y-12615764D01*
X10191700Y-12658621D01*
X10163128Y-12687193D01*
X10134557Y-12701479D01*
X10420271Y-12644336D02*
X10434557Y-12630050D01*
X10463128Y-12615764D01*
X10534557Y-12615764D01*
X10563128Y-12630050D01*
X10577414Y-12644336D01*
X10591700Y-12672907D01*
X10591700Y-12701479D01*
X10577414Y-12744336D01*
X10405986Y-12915764D01*
X10591700Y-12915764D01*
X10705986Y-12615764D02*
X10705986Y-12672907D01*
X10820271Y-12615764D02*
X10820271Y-12672907D01*
X11263128Y-13030050D02*
X11248843Y-13015764D01*
X11220271Y-12972907D01*
X11205986Y-12944336D01*
X11191700Y-12901479D01*
X11177414Y-12830050D01*
X11177414Y-12772907D01*
X11191700Y-12701479D01*
X11205986Y-12658621D01*
X11220271Y-12630050D01*
X11248843Y-12587193D01*
X11263128Y-12572907D01*
X11505986Y-12715764D02*
X11505986Y-12915764D01*
X11434557Y-12601479D02*
X11363128Y-12815764D01*
X11548843Y-12815764D01*
X11891700Y-12915764D02*
X11891700Y-12615764D01*
X12020271Y-12915764D02*
X12020271Y-12758621D01*
X12005986Y-12730050D01*
X11977414Y-12715764D01*
X11934557Y-12715764D01*
X11905986Y-12730050D01*
X11891700Y-12744336D01*
X12205986Y-12915764D02*
X12177414Y-12901479D01*
X12163128Y-12887193D01*
X12148843Y-12858621D01*
X12148843Y-12772907D01*
X12163128Y-12744336D01*
X12177414Y-12730050D01*
X12205986Y-12715764D01*
X12248843Y-12715764D01*
X12277414Y-12730050D01*
X12291700Y-12744336D01*
X12305986Y-12772907D01*
X12305986Y-12858621D01*
X12291700Y-12887193D01*
X12277414Y-12901479D01*
X12248843Y-12915764D01*
X12205986Y-12915764D01*
X12477414Y-12915764D02*
X12448843Y-12901479D01*
X12434557Y-12872907D01*
X12434557Y-12615764D01*
X12705986Y-12901479D02*
X12677414Y-12915764D01*
X12620271Y-12915764D01*
X12591700Y-12901479D01*
X12577414Y-12872907D01*
X12577414Y-12758621D01*
X12591700Y-12730050D01*
X12620271Y-12715764D01*
X12677414Y-12715764D01*
X12705986Y-12730050D01*
X12720271Y-12758621D01*
X12720271Y-12787193D01*
X12577414Y-12815764D01*
X12834557Y-12901479D02*
X12863128Y-12915764D01*
X12920271Y-12915764D01*
X12948843Y-12901479D01*
X12963128Y-12872907D01*
X12963128Y-12858621D01*
X12948843Y-12830050D01*
X12920271Y-12815764D01*
X12877414Y-12815764D01*
X12848843Y-12801479D01*
X12834557Y-12772907D01*
X12834557Y-12758621D01*
X12848843Y-12730050D01*
X12877414Y-12715764D01*
X12920271Y-12715764D01*
X12948843Y-12730050D01*
X13063128Y-13030050D02*
X13077414Y-13015764D01*
X13105986Y-12972907D01*
X13120271Y-12944336D01*
X13134557Y-12901479D01*
X13148843Y-12830050D01*
X13148843Y-12772907D01*
X13134557Y-12701479D01*
X13120271Y-12658621D01*
X13105986Y-12630050D01*
X13077414Y-12587193D01*
X13063128Y-12572907D01*
X13605986Y-13030050D02*
X13591700Y-13015764D01*
X13563128Y-12972907D01*
X13548843Y-12944336D01*
X13534557Y-12901479D01*
X13520271Y-12830050D01*
X13520271Y-12772907D01*
X13534557Y-12701479D01*
X13548843Y-12658621D01*
X13563128Y-12630050D01*
X13591700Y-12587193D01*
X13605986Y-12572907D01*
X13720271Y-12715764D02*
X13720271Y-12915764D01*
X13720271Y-12744336D02*
X13734557Y-12730050D01*
X13763128Y-12715764D01*
X13805986Y-12715764D01*
X13834557Y-12730050D01*
X13848843Y-12758621D01*
X13848843Y-12915764D01*
X14034557Y-12915764D02*
X14005986Y-12901479D01*
X13991700Y-12887193D01*
X13977414Y-12858621D01*
X13977414Y-12772907D01*
X13991700Y-12744336D01*
X14005986Y-12730050D01*
X14034557Y-12715764D01*
X14077414Y-12715764D01*
X14105986Y-12730050D01*
X14120271Y-12744336D01*
X14134557Y-12772907D01*
X14134557Y-12858621D01*
X14120271Y-12887193D01*
X14105986Y-12901479D01*
X14077414Y-12915764D01*
X14034557Y-12915764D01*
X14220271Y-12715764D02*
X14334557Y-12715764D01*
X14263128Y-12615764D02*
X14263128Y-12872907D01*
X14277414Y-12901479D01*
X14305986Y-12915764D01*
X14334557Y-12915764D01*
X14663128Y-12715764D02*
X14663128Y-13015764D01*
X14663128Y-12730050D02*
X14691700Y-12715764D01*
X14748843Y-12715764D01*
X14777414Y-12730050D01*
X14791700Y-12744336D01*
X14805986Y-12772907D01*
X14805986Y-12858621D01*
X14791700Y-12887193D01*
X14777414Y-12901479D01*
X14748843Y-12915764D01*
X14691700Y-12915764D01*
X14663128Y-12901479D01*
X14977414Y-12915764D02*
X14948843Y-12901479D01*
X14934557Y-12872907D01*
X14934557Y-12615764D01*
X15220271Y-12915764D02*
X15220271Y-12758621D01*
X15205986Y-12730050D01*
X15177414Y-12715764D01*
X15120271Y-12715764D01*
X15091700Y-12730050D01*
X15220271Y-12901479D02*
X15191700Y-12915764D01*
X15120271Y-12915764D01*
X15091700Y-12901479D01*
X15077414Y-12872907D01*
X15077414Y-12844336D01*
X15091700Y-12815764D01*
X15120271Y-12801479D01*
X15191700Y-12801479D01*
X15220271Y-12787193D01*
X15320271Y-12715764D02*
X15434557Y-12715764D01*
X15363128Y-12615764D02*
X15363128Y-12872907D01*
X15377414Y-12901479D01*
X15405986Y-12915764D01*
X15434557Y-12915764D01*
X15648843Y-12901479D02*
X15620271Y-12915764D01*
X15563128Y-12915764D01*
X15534557Y-12901479D01*
X15520271Y-12872907D01*
X15520271Y-12758621D01*
X15534557Y-12730050D01*
X15563128Y-12715764D01*
X15620271Y-12715764D01*
X15648843Y-12730050D01*
X15663128Y-12758621D01*
X15663128Y-12787193D01*
X15520271Y-12815764D01*
X15920271Y-12915764D02*
X15920271Y-12615764D01*
X15920271Y-12901479D02*
X15891700Y-12915764D01*
X15834557Y-12915764D01*
X15805986Y-12901479D01*
X15791700Y-12887193D01*
X15777414Y-12858621D01*
X15777414Y-12772907D01*
X15791700Y-12744336D01*
X15805986Y-12730050D01*
X15834557Y-12715764D01*
X15891700Y-12715764D01*
X15920271Y-12730050D01*
X16034557Y-13030050D02*
X16048843Y-13015764D01*
X16077414Y-12972907D01*
X16091700Y-12944336D01*
X16105986Y-12901479D01*
X16120271Y-12830050D01*
X16120271Y-12772907D01*
X16105986Y-12701479D01*
X16091700Y-12658621D01*
X16077414Y-12630050D01*
X16048843Y-12587193D01*
X16034557Y-12572907D01*
M02*
