%TF.GenerationSoftware,KiCad,Pcbnew,(5.1.7)-1*%
%TF.CreationDate,2021-09-17T17:18:02+01:00*%
%TF.ProjectId,Apricot-Expansion-RAM,41707269-636f-4742-9d45-7870616e7369,rev?*%
%TF.SameCoordinates,Original*%
%TF.FileFunction,Legend,Top*%
%TF.FilePolarity,Positive*%
%FSLAX46Y46*%
G04 Gerber Fmt 4.6, Leading zero omitted, Abs format (unit mm)*
G04 Created by KiCad (PCBNEW (5.1.7)-1) date 2021-09-17 17:18:02*
%MOMM*%
%LPD*%
G01*
G04 APERTURE LIST*
%ADD10C,0.150000*%
%ADD11C,0.120000*%
G04 APERTURE END LIST*
D10*
X165863428Y-106380261D02*
X166006285Y-106427880D01*
X166244380Y-106427880D01*
X166339619Y-106380261D01*
X166387238Y-106332642D01*
X166434857Y-106237404D01*
X166434857Y-106142166D01*
X166387238Y-106046928D01*
X166339619Y-105999309D01*
X166244380Y-105951690D01*
X166053904Y-105904071D01*
X165958666Y-105856452D01*
X165911047Y-105808833D01*
X165863428Y-105713595D01*
X165863428Y-105618357D01*
X165911047Y-105523119D01*
X165958666Y-105475500D01*
X166053904Y-105427880D01*
X166292000Y-105427880D01*
X166434857Y-105475500D01*
X167244380Y-106380261D02*
X167149142Y-106427880D01*
X166958666Y-106427880D01*
X166863428Y-106380261D01*
X166815809Y-106285023D01*
X166815809Y-105904071D01*
X166863428Y-105808833D01*
X166958666Y-105761214D01*
X167149142Y-105761214D01*
X167244380Y-105808833D01*
X167292000Y-105904071D01*
X167292000Y-105999309D01*
X166815809Y-106094547D01*
X167577714Y-105761214D02*
X167958666Y-105761214D01*
X167720571Y-105427880D02*
X167720571Y-106285023D01*
X167768190Y-106380261D01*
X167863428Y-106427880D01*
X167958666Y-106427880D01*
X169053904Y-105761214D02*
X169053904Y-106618357D01*
X169006285Y-106713595D01*
X168911047Y-106761214D01*
X168863428Y-106761214D01*
X169053904Y-105427880D02*
X169006285Y-105475500D01*
X169053904Y-105523119D01*
X169101523Y-105475500D01*
X169053904Y-105427880D01*
X169053904Y-105523119D01*
X169958666Y-105761214D02*
X169958666Y-106427880D01*
X169530095Y-105761214D02*
X169530095Y-106285023D01*
X169577714Y-106380261D01*
X169672952Y-106427880D01*
X169815809Y-106427880D01*
X169911047Y-106380261D01*
X169958666Y-106332642D01*
X170434857Y-106427880D02*
X170434857Y-105761214D01*
X170434857Y-105856452D02*
X170482476Y-105808833D01*
X170577714Y-105761214D01*
X170720571Y-105761214D01*
X170815809Y-105808833D01*
X170863428Y-105904071D01*
X170863428Y-106427880D01*
X170863428Y-105904071D02*
X170911047Y-105808833D01*
X171006285Y-105761214D01*
X171149142Y-105761214D01*
X171244380Y-105808833D01*
X171292000Y-105904071D01*
X171292000Y-106427880D01*
X171768190Y-105761214D02*
X171768190Y-106761214D01*
X171768190Y-105808833D02*
X171863428Y-105761214D01*
X172053904Y-105761214D01*
X172149142Y-105808833D01*
X172196761Y-105856452D01*
X172244380Y-105951690D01*
X172244380Y-106237404D01*
X172196761Y-106332642D01*
X172149142Y-106380261D01*
X172053904Y-106427880D01*
X171863428Y-106427880D01*
X171768190Y-106380261D01*
X173053904Y-106380261D02*
X172958666Y-106427880D01*
X172768190Y-106427880D01*
X172672952Y-106380261D01*
X172625333Y-106285023D01*
X172625333Y-105904071D01*
X172672952Y-105808833D01*
X172768190Y-105761214D01*
X172958666Y-105761214D01*
X173053904Y-105808833D01*
X173101523Y-105904071D01*
X173101523Y-105999309D01*
X172625333Y-106094547D01*
X173530095Y-106427880D02*
X173530095Y-105761214D01*
X173530095Y-105951690D02*
X173577714Y-105856452D01*
X173625333Y-105808833D01*
X173720571Y-105761214D01*
X173815809Y-105761214D01*
X175339619Y-106427880D02*
X175339619Y-105427880D01*
X175339619Y-106380261D02*
X175244380Y-106427880D01*
X175053904Y-106427880D01*
X174958666Y-106380261D01*
X174911047Y-106332642D01*
X174863428Y-106237404D01*
X174863428Y-105951690D01*
X174911047Y-105856452D01*
X174958666Y-105808833D01*
X175053904Y-105761214D01*
X175244380Y-105761214D01*
X175339619Y-105808833D01*
X176196761Y-106380261D02*
X176101523Y-106427880D01*
X175911047Y-106427880D01*
X175815809Y-106380261D01*
X175768190Y-106285023D01*
X175768190Y-105904071D01*
X175815809Y-105808833D01*
X175911047Y-105761214D01*
X176101523Y-105761214D01*
X176196761Y-105808833D01*
X176244380Y-105904071D01*
X176244380Y-105999309D01*
X175768190Y-106094547D01*
X176672952Y-105761214D02*
X176672952Y-106761214D01*
X176672952Y-105808833D02*
X176768190Y-105761214D01*
X176958666Y-105761214D01*
X177053904Y-105808833D01*
X177101523Y-105856452D01*
X177149142Y-105951690D01*
X177149142Y-106237404D01*
X177101523Y-106332642D01*
X177053904Y-106380261D01*
X176958666Y-106427880D01*
X176768190Y-106427880D01*
X176672952Y-106380261D01*
X177958666Y-106380261D02*
X177863428Y-106427880D01*
X177672952Y-106427880D01*
X177577714Y-106380261D01*
X177530095Y-106285023D01*
X177530095Y-105904071D01*
X177577714Y-105808833D01*
X177672952Y-105761214D01*
X177863428Y-105761214D01*
X177958666Y-105808833D01*
X178006285Y-105904071D01*
X178006285Y-105999309D01*
X177530095Y-106094547D01*
X178434857Y-105761214D02*
X178434857Y-106427880D01*
X178434857Y-105856452D02*
X178482476Y-105808833D01*
X178577714Y-105761214D01*
X178720571Y-105761214D01*
X178815809Y-105808833D01*
X178863428Y-105904071D01*
X178863428Y-106427880D01*
X179768190Y-106427880D02*
X179768190Y-105427880D01*
X179768190Y-106380261D02*
X179672952Y-106427880D01*
X179482476Y-106427880D01*
X179387238Y-106380261D01*
X179339619Y-106332642D01*
X179292000Y-106237404D01*
X179292000Y-105951690D01*
X179339619Y-105856452D01*
X179387238Y-105808833D01*
X179482476Y-105761214D01*
X179672952Y-105761214D01*
X179768190Y-105808833D01*
X180244380Y-106427880D02*
X180244380Y-105761214D01*
X180244380Y-105427880D02*
X180196761Y-105475500D01*
X180244380Y-105523119D01*
X180292000Y-105475500D01*
X180244380Y-105427880D01*
X180244380Y-105523119D01*
X180720571Y-105761214D02*
X180720571Y-106427880D01*
X180720571Y-105856452D02*
X180768190Y-105808833D01*
X180863428Y-105761214D01*
X181006285Y-105761214D01*
X181101523Y-105808833D01*
X181149142Y-105904071D01*
X181149142Y-106427880D01*
X182053904Y-105761214D02*
X182053904Y-106570738D01*
X182006285Y-106665976D01*
X181958666Y-106713595D01*
X181863428Y-106761214D01*
X181720571Y-106761214D01*
X181625333Y-106713595D01*
X182053904Y-106380261D02*
X181958666Y-106427880D01*
X181768190Y-106427880D01*
X181672952Y-106380261D01*
X181625333Y-106332642D01*
X181577714Y-106237404D01*
X181577714Y-105951690D01*
X181625333Y-105856452D01*
X181672952Y-105808833D01*
X181768190Y-105761214D01*
X181958666Y-105761214D01*
X182053904Y-105808833D01*
X183720571Y-105761214D02*
X183720571Y-106427880D01*
X183292000Y-105761214D02*
X183292000Y-106285023D01*
X183339619Y-106380261D01*
X183434857Y-106427880D01*
X183577714Y-106427880D01*
X183672952Y-106380261D01*
X183720571Y-106332642D01*
X184196761Y-105761214D02*
X184196761Y-106761214D01*
X184196761Y-105808833D02*
X184292000Y-105761214D01*
X184482476Y-105761214D01*
X184577714Y-105808833D01*
X184625333Y-105856452D01*
X184672952Y-105951690D01*
X184672952Y-106237404D01*
X184625333Y-106332642D01*
X184577714Y-106380261D01*
X184482476Y-106427880D01*
X184292000Y-106427880D01*
X184196761Y-106380261D01*
X185244380Y-106427880D02*
X185149142Y-106380261D01*
X185101523Y-106332642D01*
X185053904Y-106237404D01*
X185053904Y-105951690D01*
X185101523Y-105856452D01*
X185149142Y-105808833D01*
X185244380Y-105761214D01*
X185387238Y-105761214D01*
X185482476Y-105808833D01*
X185530095Y-105856452D01*
X185577714Y-105951690D01*
X185577714Y-106237404D01*
X185530095Y-106332642D01*
X185482476Y-106380261D01*
X185387238Y-106427880D01*
X185244380Y-106427880D01*
X186006285Y-105761214D02*
X186006285Y-106427880D01*
X186006285Y-105856452D02*
X186053904Y-105808833D01*
X186149142Y-105761214D01*
X186292000Y-105761214D01*
X186387238Y-105808833D01*
X186434857Y-105904071D01*
X186434857Y-106427880D01*
X187625333Y-106380261D02*
X187720571Y-106427880D01*
X187911047Y-106427880D01*
X188006285Y-106380261D01*
X188053904Y-106285023D01*
X188053904Y-106237404D01*
X188006285Y-106142166D01*
X187911047Y-106094547D01*
X187768190Y-106094547D01*
X187672952Y-106046928D01*
X187625333Y-105951690D01*
X187625333Y-105904071D01*
X187672952Y-105808833D01*
X187768190Y-105761214D01*
X187911047Y-105761214D01*
X188006285Y-105808833D01*
X188387238Y-105761214D02*
X188625333Y-106427880D01*
X188863428Y-105761214D02*
X188625333Y-106427880D01*
X188530095Y-106665976D01*
X188482476Y-106713595D01*
X188387238Y-106761214D01*
X189196761Y-106380261D02*
X189292000Y-106427880D01*
X189482476Y-106427880D01*
X189577714Y-106380261D01*
X189625333Y-106285023D01*
X189625333Y-106237404D01*
X189577714Y-106142166D01*
X189482476Y-106094547D01*
X189339619Y-106094547D01*
X189244380Y-106046928D01*
X189196761Y-105951690D01*
X189196761Y-105904071D01*
X189244380Y-105808833D01*
X189339619Y-105761214D01*
X189482476Y-105761214D01*
X189577714Y-105808833D01*
X189911047Y-105761214D02*
X190292000Y-105761214D01*
X190053904Y-105427880D02*
X190053904Y-106285023D01*
X190101523Y-106380261D01*
X190196761Y-106427880D01*
X190292000Y-106427880D01*
X191006285Y-106380261D02*
X190911047Y-106427880D01*
X190720571Y-106427880D01*
X190625333Y-106380261D01*
X190577714Y-106285023D01*
X190577714Y-105904071D01*
X190625333Y-105808833D01*
X190720571Y-105761214D01*
X190911047Y-105761214D01*
X191006285Y-105808833D01*
X191053904Y-105904071D01*
X191053904Y-105999309D01*
X190577714Y-106094547D01*
X191482476Y-106427880D02*
X191482476Y-105761214D01*
X191482476Y-105856452D02*
X191530095Y-105808833D01*
X191625333Y-105761214D01*
X191768190Y-105761214D01*
X191863428Y-105808833D01*
X191911047Y-105904071D01*
X191911047Y-106427880D01*
X191911047Y-105904071D02*
X191958666Y-105808833D01*
X192053904Y-105761214D01*
X192196761Y-105761214D01*
X192292000Y-105808833D01*
X192339619Y-105904071D01*
X192339619Y-106427880D01*
X193434857Y-105761214D02*
X193815809Y-105761214D01*
X193577714Y-105427880D02*
X193577714Y-106285023D01*
X193625333Y-106380261D01*
X193720571Y-106427880D01*
X193815809Y-106427880D01*
X194053904Y-105761214D02*
X194292000Y-106427880D01*
X194530095Y-105761214D02*
X194292000Y-106427880D01*
X194196761Y-106665976D01*
X194149142Y-106713595D01*
X194053904Y-106761214D01*
X194911047Y-105761214D02*
X194911047Y-106761214D01*
X194911047Y-105808833D02*
X195006285Y-105761214D01*
X195196761Y-105761214D01*
X195292000Y-105808833D01*
X195339619Y-105856452D01*
X195387238Y-105951690D01*
X195387238Y-106237404D01*
X195339619Y-106332642D01*
X195292000Y-106380261D01*
X195196761Y-106427880D01*
X195006285Y-106427880D01*
X194911047Y-106380261D01*
X196196761Y-106380261D02*
X196101523Y-106427880D01*
X195911047Y-106427880D01*
X195815809Y-106380261D01*
X195768190Y-106285023D01*
X195768190Y-105904071D01*
X195815809Y-105808833D01*
X195911047Y-105761214D01*
X196101523Y-105761214D01*
X196196761Y-105808833D01*
X196244380Y-105904071D01*
X196244380Y-105999309D01*
X195768190Y-106094547D01*
X196672952Y-106332642D02*
X196720571Y-106380261D01*
X196672952Y-106427880D01*
X196625333Y-106380261D01*
X196672952Y-106332642D01*
X196672952Y-106427880D01*
X212553904Y-106104071D02*
X212220571Y-106104071D01*
X212220571Y-106627880D02*
X212220571Y-105627880D01*
X212696761Y-105627880D01*
X213030095Y-105723119D02*
X213077714Y-105675500D01*
X213172952Y-105627880D01*
X213411047Y-105627880D01*
X213506285Y-105675500D01*
X213553904Y-105723119D01*
X213601523Y-105818357D01*
X213601523Y-105913595D01*
X213553904Y-106056452D01*
X212982476Y-106627880D01*
X213601523Y-106627880D01*
X214744380Y-105580261D02*
X213887238Y-106865976D01*
X215411047Y-106104071D02*
X215077714Y-106104071D01*
X215077714Y-106627880D02*
X215077714Y-105627880D01*
X215553904Y-105627880D01*
X216458666Y-106627880D02*
X215887238Y-106627880D01*
X216172952Y-106627880D02*
X216172952Y-105627880D01*
X216077714Y-105770738D01*
X215982476Y-105865976D01*
X215887238Y-105913595D01*
X217077714Y-105627880D02*
X217172952Y-105627880D01*
X217268190Y-105675500D01*
X217315809Y-105723119D01*
X217363428Y-105818357D01*
X217411047Y-106008833D01*
X217411047Y-106246928D01*
X217363428Y-106437404D01*
X217315809Y-106532642D01*
X217268190Y-106580261D01*
X217172952Y-106627880D01*
X217077714Y-106627880D01*
X216982476Y-106580261D01*
X216934857Y-106532642D01*
X216887238Y-106437404D01*
X216839619Y-106246928D01*
X216839619Y-106008833D01*
X216887238Y-105818357D01*
X216934857Y-105723119D01*
X216982476Y-105675500D01*
X217077714Y-105627880D01*
X200758666Y-106104071D02*
X200425333Y-106104071D01*
X200425333Y-106627880D02*
X200425333Y-105627880D01*
X200901523Y-105627880D01*
X201806285Y-106627880D02*
X201234857Y-106627880D01*
X201520571Y-106627880D02*
X201520571Y-105627880D01*
X201425333Y-105770738D01*
X201330095Y-105865976D01*
X201234857Y-105913595D01*
X145372952Y-77627880D02*
X146039619Y-77627880D01*
X145611047Y-78627880D01*
X146849142Y-77961214D02*
X146849142Y-78627880D01*
X146611047Y-77580261D02*
X146372952Y-78294547D01*
X146992000Y-78294547D01*
X147849142Y-78627880D02*
X147372952Y-78627880D01*
X147372952Y-77627880D01*
X148134857Y-78580261D02*
X148277714Y-78627880D01*
X148515809Y-78627880D01*
X148611047Y-78580261D01*
X148658666Y-78532642D01*
X148706285Y-78437404D01*
X148706285Y-78342166D01*
X148658666Y-78246928D01*
X148611047Y-78199309D01*
X148515809Y-78151690D01*
X148325333Y-78104071D01*
X148230095Y-78056452D01*
X148182476Y-78008833D01*
X148134857Y-77913595D01*
X148134857Y-77818357D01*
X148182476Y-77723119D01*
X148230095Y-77675500D01*
X148325333Y-77627880D01*
X148563428Y-77627880D01*
X148706285Y-77675500D01*
X149087238Y-77723119D02*
X149134857Y-77675500D01*
X149230095Y-77627880D01*
X149468190Y-77627880D01*
X149563428Y-77675500D01*
X149611047Y-77723119D01*
X149658666Y-77818357D01*
X149658666Y-77913595D01*
X149611047Y-78056452D01*
X149039619Y-78627880D01*
X149658666Y-78627880D01*
X150515809Y-77961214D02*
X150515809Y-78627880D01*
X150277714Y-77580261D02*
X150039619Y-78294547D01*
X150658666Y-78294547D01*
X151515809Y-77627880D02*
X151039619Y-77627880D01*
X150992000Y-78104071D01*
X151039619Y-78056452D01*
X151134857Y-78008833D01*
X151372952Y-78008833D01*
X151468190Y-78056452D01*
X151515809Y-78104071D01*
X151563428Y-78199309D01*
X151563428Y-78437404D01*
X151515809Y-78532642D01*
X151468190Y-78580261D01*
X151372952Y-78627880D01*
X151134857Y-78627880D01*
X151039619Y-78580261D01*
X150992000Y-78532642D01*
X162096761Y-59392166D02*
X162572952Y-59392166D01*
X162001523Y-59677880D02*
X162334857Y-58677880D01*
X162668190Y-59677880D01*
X163001523Y-59011214D02*
X163001523Y-60011214D01*
X163001523Y-59058833D02*
X163096761Y-59011214D01*
X163287238Y-59011214D01*
X163382476Y-59058833D01*
X163430095Y-59106452D01*
X163477714Y-59201690D01*
X163477714Y-59487404D01*
X163430095Y-59582642D01*
X163382476Y-59630261D01*
X163287238Y-59677880D01*
X163096761Y-59677880D01*
X163001523Y-59630261D01*
X163906285Y-59677880D02*
X163906285Y-59011214D01*
X163906285Y-59201690D02*
X163953904Y-59106452D01*
X164001523Y-59058833D01*
X164096761Y-59011214D01*
X164192000Y-59011214D01*
X164525333Y-59677880D02*
X164525333Y-59011214D01*
X164525333Y-58677880D02*
X164477714Y-58725500D01*
X164525333Y-58773119D01*
X164572952Y-58725500D01*
X164525333Y-58677880D01*
X164525333Y-58773119D01*
X165430095Y-59630261D02*
X165334857Y-59677880D01*
X165144380Y-59677880D01*
X165049142Y-59630261D01*
X165001523Y-59582642D01*
X164953904Y-59487404D01*
X164953904Y-59201690D01*
X165001523Y-59106452D01*
X165049142Y-59058833D01*
X165144380Y-59011214D01*
X165334857Y-59011214D01*
X165430095Y-59058833D01*
X166001523Y-59677880D02*
X165906285Y-59630261D01*
X165858666Y-59582642D01*
X165811047Y-59487404D01*
X165811047Y-59201690D01*
X165858666Y-59106452D01*
X165906285Y-59058833D01*
X166001523Y-59011214D01*
X166144380Y-59011214D01*
X166239619Y-59058833D01*
X166287238Y-59106452D01*
X166334857Y-59201690D01*
X166334857Y-59487404D01*
X166287238Y-59582642D01*
X166239619Y-59630261D01*
X166144380Y-59677880D01*
X166001523Y-59677880D01*
X166620571Y-59011214D02*
X167001523Y-59011214D01*
X166763428Y-58677880D02*
X166763428Y-59535023D01*
X166811047Y-59630261D01*
X166906285Y-59677880D01*
X167001523Y-59677880D01*
X168430095Y-59154071D02*
X168096761Y-59154071D01*
X168096761Y-59677880D02*
X168096761Y-58677880D01*
X168572952Y-58677880D01*
X169668190Y-59630261D02*
X169811047Y-59677880D01*
X170049142Y-59677880D01*
X170144380Y-59630261D01*
X170192000Y-59582642D01*
X170239619Y-59487404D01*
X170239619Y-59392166D01*
X170192000Y-59296928D01*
X170144380Y-59249309D01*
X170049142Y-59201690D01*
X169858666Y-59154071D01*
X169763428Y-59106452D01*
X169715809Y-59058833D01*
X169668190Y-58963595D01*
X169668190Y-58868357D01*
X169715809Y-58773119D01*
X169763428Y-58725500D01*
X169858666Y-58677880D01*
X170096761Y-58677880D01*
X170239619Y-58725500D01*
X171049142Y-59630261D02*
X170953904Y-59677880D01*
X170763428Y-59677880D01*
X170668190Y-59630261D01*
X170620571Y-59535023D01*
X170620571Y-59154071D01*
X170668190Y-59058833D01*
X170763428Y-59011214D01*
X170953904Y-59011214D01*
X171049142Y-59058833D01*
X171096761Y-59154071D01*
X171096761Y-59249309D01*
X170620571Y-59344547D01*
X171525333Y-59677880D02*
X171525333Y-59011214D01*
X171525333Y-59201690D02*
X171572952Y-59106452D01*
X171620571Y-59058833D01*
X171715809Y-59011214D01*
X171811047Y-59011214D01*
X172144380Y-59677880D02*
X172144380Y-59011214D01*
X172144380Y-58677880D02*
X172096761Y-58725500D01*
X172144380Y-58773119D01*
X172192000Y-58725500D01*
X172144380Y-58677880D01*
X172144380Y-58773119D01*
X173001523Y-59630261D02*
X172906285Y-59677880D01*
X172715809Y-59677880D01*
X172620571Y-59630261D01*
X172572952Y-59535023D01*
X172572952Y-59154071D01*
X172620571Y-59058833D01*
X172715809Y-59011214D01*
X172906285Y-59011214D01*
X173001523Y-59058833D01*
X173049142Y-59154071D01*
X173049142Y-59249309D01*
X172572952Y-59344547D01*
X173430095Y-59630261D02*
X173525333Y-59677880D01*
X173715809Y-59677880D01*
X173811047Y-59630261D01*
X173858666Y-59535023D01*
X173858666Y-59487404D01*
X173811047Y-59392166D01*
X173715809Y-59344547D01*
X173572952Y-59344547D01*
X173477714Y-59296928D01*
X173430095Y-59201690D01*
X173430095Y-59154071D01*
X173477714Y-59058833D01*
X173572952Y-59011214D01*
X173715809Y-59011214D01*
X173811047Y-59058833D01*
X175430095Y-59630261D02*
X175334857Y-59677880D01*
X175144380Y-59677880D01*
X175049142Y-59630261D01*
X175001523Y-59535023D01*
X175001523Y-59154071D01*
X175049142Y-59058833D01*
X175144380Y-59011214D01*
X175334857Y-59011214D01*
X175430095Y-59058833D01*
X175477714Y-59154071D01*
X175477714Y-59249309D01*
X175001523Y-59344547D01*
X175811047Y-59677880D02*
X176334857Y-59011214D01*
X175811047Y-59011214D02*
X176334857Y-59677880D01*
X176715809Y-59011214D02*
X176715809Y-60011214D01*
X176715809Y-59058833D02*
X176811047Y-59011214D01*
X177001523Y-59011214D01*
X177096761Y-59058833D01*
X177144380Y-59106452D01*
X177192000Y-59201690D01*
X177192000Y-59487404D01*
X177144380Y-59582642D01*
X177096761Y-59630261D01*
X177001523Y-59677880D01*
X176811047Y-59677880D01*
X176715809Y-59630261D01*
X178049142Y-59677880D02*
X178049142Y-59154071D01*
X178001523Y-59058833D01*
X177906285Y-59011214D01*
X177715809Y-59011214D01*
X177620571Y-59058833D01*
X178049142Y-59630261D02*
X177953904Y-59677880D01*
X177715809Y-59677880D01*
X177620571Y-59630261D01*
X177572952Y-59535023D01*
X177572952Y-59439785D01*
X177620571Y-59344547D01*
X177715809Y-59296928D01*
X177953904Y-59296928D01*
X178049142Y-59249309D01*
X178525333Y-59011214D02*
X178525333Y-59677880D01*
X178525333Y-59106452D02*
X178572952Y-59058833D01*
X178668190Y-59011214D01*
X178811047Y-59011214D01*
X178906285Y-59058833D01*
X178953904Y-59154071D01*
X178953904Y-59677880D01*
X179858666Y-59677880D02*
X179858666Y-58677880D01*
X179858666Y-59630261D02*
X179763428Y-59677880D01*
X179572952Y-59677880D01*
X179477714Y-59630261D01*
X179430095Y-59582642D01*
X179382476Y-59487404D01*
X179382476Y-59201690D01*
X179430095Y-59106452D01*
X179477714Y-59058833D01*
X179572952Y-59011214D01*
X179763428Y-59011214D01*
X179858666Y-59058833D01*
X180763428Y-59677880D02*
X180763428Y-59154071D01*
X180715809Y-59058833D01*
X180620571Y-59011214D01*
X180430095Y-59011214D01*
X180334857Y-59058833D01*
X180763428Y-59630261D02*
X180668190Y-59677880D01*
X180430095Y-59677880D01*
X180334857Y-59630261D01*
X180287238Y-59535023D01*
X180287238Y-59439785D01*
X180334857Y-59344547D01*
X180430095Y-59296928D01*
X180668190Y-59296928D01*
X180763428Y-59249309D01*
X181239619Y-59677880D02*
X181239619Y-58677880D01*
X181239619Y-59058833D02*
X181334857Y-59011214D01*
X181525333Y-59011214D01*
X181620571Y-59058833D01*
X181668190Y-59106452D01*
X181715809Y-59201690D01*
X181715809Y-59487404D01*
X181668190Y-59582642D01*
X181620571Y-59630261D01*
X181525333Y-59677880D01*
X181334857Y-59677880D01*
X181239619Y-59630261D01*
X182287238Y-59677880D02*
X182191999Y-59630261D01*
X182144380Y-59535023D01*
X182144380Y-58677880D01*
X183049142Y-59630261D02*
X182953904Y-59677880D01*
X182763428Y-59677880D01*
X182668190Y-59630261D01*
X182620571Y-59535023D01*
X182620571Y-59154071D01*
X182668190Y-59058833D01*
X182763428Y-59011214D01*
X182953904Y-59011214D01*
X183049142Y-59058833D01*
X183096761Y-59154071D01*
X183096761Y-59249309D01*
X182620571Y-59344547D01*
X184239619Y-59630261D02*
X184382476Y-59677880D01*
X184620571Y-59677880D01*
X184715809Y-59630261D01*
X184763428Y-59582642D01*
X184811047Y-59487404D01*
X184811047Y-59392166D01*
X184763428Y-59296928D01*
X184715809Y-59249309D01*
X184620571Y-59201690D01*
X184430095Y-59154071D01*
X184334857Y-59106452D01*
X184287238Y-59058833D01*
X184239619Y-58963595D01*
X184239619Y-58868357D01*
X184287238Y-58773119D01*
X184334857Y-58725500D01*
X184430095Y-58677880D01*
X184668190Y-58677880D01*
X184811047Y-58725500D01*
X185811047Y-59677880D02*
X185477714Y-59201690D01*
X185239619Y-59677880D02*
X185239619Y-58677880D01*
X185620571Y-58677880D01*
X185715809Y-58725500D01*
X185763428Y-58773119D01*
X185811047Y-58868357D01*
X185811047Y-59011214D01*
X185763428Y-59106452D01*
X185715809Y-59154071D01*
X185620571Y-59201690D01*
X185239619Y-59201690D01*
X186191999Y-59392166D02*
X186668190Y-59392166D01*
X186096761Y-59677880D02*
X186430095Y-58677880D01*
X186763428Y-59677880D01*
X187096761Y-59677880D02*
X187096761Y-58677880D01*
X187430095Y-59392166D01*
X187763428Y-58677880D01*
X187763428Y-59677880D01*
X189001523Y-59677880D02*
X189001523Y-58677880D01*
X189001523Y-59058833D02*
X189096761Y-59011214D01*
X189287238Y-59011214D01*
X189382476Y-59058833D01*
X189430095Y-59106452D01*
X189477714Y-59201690D01*
X189477714Y-59487404D01*
X189430095Y-59582642D01*
X189382476Y-59630261D01*
X189287238Y-59677880D01*
X189096761Y-59677880D01*
X189001523Y-59630261D01*
X190049142Y-59677880D02*
X189953904Y-59630261D01*
X189906285Y-59582642D01*
X189858666Y-59487404D01*
X189858666Y-59201690D01*
X189906285Y-59106452D01*
X189953904Y-59058833D01*
X190049142Y-59011214D01*
X190191999Y-59011214D01*
X190287238Y-59058833D01*
X190334857Y-59106452D01*
X190382476Y-59201690D01*
X190382476Y-59487404D01*
X190334857Y-59582642D01*
X190287238Y-59630261D01*
X190191999Y-59677880D01*
X190049142Y-59677880D01*
X191239619Y-59677880D02*
X191239619Y-59154071D01*
X191191999Y-59058833D01*
X191096761Y-59011214D01*
X190906285Y-59011214D01*
X190811047Y-59058833D01*
X191239619Y-59630261D02*
X191144380Y-59677880D01*
X190906285Y-59677880D01*
X190811047Y-59630261D01*
X190763428Y-59535023D01*
X190763428Y-59439785D01*
X190811047Y-59344547D01*
X190906285Y-59296928D01*
X191144380Y-59296928D01*
X191239619Y-59249309D01*
X191715809Y-59677880D02*
X191715809Y-59011214D01*
X191715809Y-59201690D02*
X191763428Y-59106452D01*
X191811047Y-59058833D01*
X191906285Y-59011214D01*
X192001523Y-59011214D01*
X192763428Y-59677880D02*
X192763428Y-58677880D01*
X192763428Y-59630261D02*
X192668190Y-59677880D01*
X192477714Y-59677880D01*
X192382476Y-59630261D01*
X192334857Y-59582642D01*
X192287238Y-59487404D01*
X192287238Y-59201690D01*
X192334857Y-59106452D01*
X192382476Y-59058833D01*
X192477714Y-59011214D01*
X192668190Y-59011214D01*
X192763428Y-59058833D01*
X193239619Y-59582642D02*
X193287238Y-59630261D01*
X193239619Y-59677880D01*
X193191999Y-59630261D01*
X193239619Y-59582642D01*
X193239619Y-59677880D01*
X159834857Y-60327880D02*
X160168190Y-61327880D01*
X160501523Y-60327880D01*
X161215809Y-61280261D02*
X161120571Y-61327880D01*
X160930095Y-61327880D01*
X160834857Y-61280261D01*
X160787238Y-61185023D01*
X160787238Y-60804071D01*
X160834857Y-60708833D01*
X160930095Y-60661214D01*
X161120571Y-60661214D01*
X161215809Y-60708833D01*
X161263428Y-60804071D01*
X161263428Y-60899309D01*
X160787238Y-60994547D01*
X161692000Y-61327880D02*
X161692000Y-60661214D01*
X161692000Y-60851690D02*
X161739619Y-60756452D01*
X161787238Y-60708833D01*
X161882476Y-60661214D01*
X161977714Y-60661214D01*
X162263428Y-61280261D02*
X162358666Y-61327880D01*
X162549142Y-61327880D01*
X162644380Y-61280261D01*
X162692000Y-61185023D01*
X162692000Y-61137404D01*
X162644380Y-61042166D01*
X162549142Y-60994547D01*
X162406285Y-60994547D01*
X162311047Y-60946928D01*
X162263428Y-60851690D01*
X162263428Y-60804071D01*
X162311047Y-60708833D01*
X162406285Y-60661214D01*
X162549142Y-60661214D01*
X162644380Y-60708833D01*
X163120571Y-61327880D02*
X163120571Y-60661214D01*
X163120571Y-60327880D02*
X163072952Y-60375500D01*
X163120571Y-60423119D01*
X163168190Y-60375500D01*
X163120571Y-60327880D01*
X163120571Y-60423119D01*
X163739619Y-61327880D02*
X163644380Y-61280261D01*
X163596761Y-61232642D01*
X163549142Y-61137404D01*
X163549142Y-60851690D01*
X163596761Y-60756452D01*
X163644380Y-60708833D01*
X163739619Y-60661214D01*
X163882476Y-60661214D01*
X163977714Y-60708833D01*
X164025333Y-60756452D01*
X164072952Y-60851690D01*
X164072952Y-61137404D01*
X164025333Y-61232642D01*
X163977714Y-61280261D01*
X163882476Y-61327880D01*
X163739619Y-61327880D01*
X164501523Y-60661214D02*
X164501523Y-61327880D01*
X164501523Y-60756452D02*
X164549142Y-60708833D01*
X164644380Y-60661214D01*
X164787238Y-60661214D01*
X164882476Y-60708833D01*
X164930095Y-60804071D01*
X164930095Y-61327880D01*
X166025333Y-60327880D02*
X166596761Y-60327880D01*
X166311047Y-61327880D02*
X166311047Y-60327880D01*
X166834857Y-60661214D02*
X167025333Y-61327880D01*
X167215809Y-60851690D01*
X167406285Y-61327880D01*
X167596761Y-60661214D01*
X168120571Y-61327880D02*
X168025333Y-61280261D01*
X167977714Y-61232642D01*
X167930095Y-61137404D01*
X167930095Y-60851690D01*
X167977714Y-60756452D01*
X168025333Y-60708833D01*
X168120571Y-60661214D01*
X168263428Y-60661214D01*
X168358666Y-60708833D01*
X168406285Y-60756452D01*
X168453904Y-60851690D01*
X168453904Y-61137404D01*
X168406285Y-61232642D01*
X168358666Y-61280261D01*
X168263428Y-61327880D01*
X168120571Y-61327880D01*
X170120571Y-61327880D02*
X169644380Y-61327880D01*
X169644380Y-60327880D01*
X170882476Y-61327880D02*
X170882476Y-60804071D01*
X170834857Y-60708833D01*
X170739619Y-60661214D01*
X170549142Y-60661214D01*
X170453904Y-60708833D01*
X170882476Y-61280261D02*
X170787238Y-61327880D01*
X170549142Y-61327880D01*
X170453904Y-61280261D01*
X170406285Y-61185023D01*
X170406285Y-61089785D01*
X170453904Y-60994547D01*
X170549142Y-60946928D01*
X170787238Y-60946928D01*
X170882476Y-60899309D01*
X171263428Y-60661214D02*
X171501523Y-61327880D01*
X171739619Y-60661214D02*
X171501523Y-61327880D01*
X171406285Y-61565976D01*
X171358666Y-61613595D01*
X171263428Y-61661214D01*
X172501523Y-61280261D02*
X172406285Y-61327880D01*
X172215809Y-61327880D01*
X172120571Y-61280261D01*
X172072952Y-61185023D01*
X172072952Y-60804071D01*
X172120571Y-60708833D01*
X172215809Y-60661214D01*
X172406285Y-60661214D01*
X172501523Y-60708833D01*
X172549142Y-60804071D01*
X172549142Y-60899309D01*
X172072952Y-60994547D01*
X172977714Y-61327880D02*
X172977714Y-60661214D01*
X172977714Y-60851690D02*
X173025333Y-60756452D01*
X173072952Y-60708833D01*
X173168190Y-60661214D01*
X173263428Y-60661214D01*
X174311047Y-60423119D02*
X174358666Y-60375500D01*
X174453904Y-60327880D01*
X174692000Y-60327880D01*
X174787238Y-60375500D01*
X174834857Y-60423119D01*
X174882476Y-60518357D01*
X174882476Y-60613595D01*
X174834857Y-60756452D01*
X174263428Y-61327880D01*
X174882476Y-61327880D01*
X175311047Y-61232642D02*
X175358666Y-61280261D01*
X175311047Y-61327880D01*
X175263428Y-61280261D01*
X175311047Y-61232642D01*
X175311047Y-61327880D01*
X175977714Y-60327880D02*
X176072952Y-60327880D01*
X176168190Y-60375500D01*
X176215809Y-60423119D01*
X176263428Y-60518357D01*
X176311047Y-60708833D01*
X176311047Y-60946928D01*
X176263428Y-61137404D01*
X176215809Y-61232642D01*
X176168190Y-61280261D01*
X176072952Y-61327880D01*
X175977714Y-61327880D01*
X175882476Y-61280261D01*
X175834857Y-61232642D01*
X175787238Y-61137404D01*
X175739619Y-60946928D01*
X175739619Y-60708833D01*
X175787238Y-60518357D01*
X175834857Y-60423119D01*
X175882476Y-60375500D01*
X175977714Y-60327880D01*
X177787238Y-61708833D02*
X177739619Y-61661214D01*
X177644380Y-61518357D01*
X177596761Y-61423119D01*
X177549142Y-61280261D01*
X177501523Y-61042166D01*
X177501523Y-60851690D01*
X177549142Y-60613595D01*
X177596761Y-60470738D01*
X177644380Y-60375500D01*
X177739619Y-60232642D01*
X177787238Y-60185023D01*
X178692000Y-61327880D02*
X178120571Y-61327880D01*
X178406285Y-61327880D02*
X178406285Y-60327880D01*
X178311047Y-60470738D01*
X178215809Y-60565976D01*
X178120571Y-60613595D01*
X179025333Y-60327880D02*
X179692000Y-60327880D01*
X179263428Y-61327880D01*
X179930095Y-60661214D02*
X180311047Y-60661214D01*
X180072952Y-60327880D02*
X180072952Y-61185023D01*
X180120571Y-61280261D01*
X180215809Y-61327880D01*
X180311047Y-61327880D01*
X180644380Y-61327880D02*
X180644380Y-60327880D01*
X181072952Y-61327880D02*
X181072952Y-60804071D01*
X181025333Y-60708833D01*
X180930095Y-60661214D01*
X180787238Y-60661214D01*
X180692000Y-60708833D01*
X180644380Y-60756452D01*
X182263428Y-61280261D02*
X182406285Y-61327880D01*
X182644380Y-61327880D01*
X182739619Y-61280261D01*
X182787238Y-61232642D01*
X182834857Y-61137404D01*
X182834857Y-61042166D01*
X182787238Y-60946928D01*
X182739619Y-60899309D01*
X182644380Y-60851690D01*
X182453904Y-60804071D01*
X182358666Y-60756452D01*
X182311047Y-60708833D01*
X182263428Y-60613595D01*
X182263428Y-60518357D01*
X182311047Y-60423119D01*
X182358666Y-60375500D01*
X182453904Y-60327880D01*
X182692000Y-60327880D01*
X182834857Y-60375500D01*
X183644380Y-61280261D02*
X183549142Y-61327880D01*
X183358666Y-61327880D01*
X183263428Y-61280261D01*
X183215809Y-61185023D01*
X183215809Y-60804071D01*
X183263428Y-60708833D01*
X183358666Y-60661214D01*
X183549142Y-60661214D01*
X183644380Y-60708833D01*
X183692000Y-60804071D01*
X183692000Y-60899309D01*
X183215809Y-60994547D01*
X184120571Y-60661214D02*
X184120571Y-61661214D01*
X184120571Y-60708833D02*
X184215809Y-60661214D01*
X184406285Y-60661214D01*
X184501523Y-60708833D01*
X184549142Y-60756452D01*
X184596761Y-60851690D01*
X184596761Y-61137404D01*
X184549142Y-61232642D01*
X184501523Y-61280261D01*
X184406285Y-61327880D01*
X184215809Y-61327880D01*
X184120571Y-61280261D01*
X184882476Y-60661214D02*
X185263428Y-60661214D01*
X185025333Y-60327880D02*
X185025333Y-61185023D01*
X185072952Y-61280261D01*
X185168190Y-61327880D01*
X185263428Y-61327880D01*
X185977714Y-61280261D02*
X185882476Y-61327880D01*
X185692000Y-61327880D01*
X185596761Y-61280261D01*
X185549142Y-61185023D01*
X185549142Y-60804071D01*
X185596761Y-60708833D01*
X185692000Y-60661214D01*
X185882476Y-60661214D01*
X185977714Y-60708833D01*
X186025333Y-60804071D01*
X186025333Y-60899309D01*
X185549142Y-60994547D01*
X186453904Y-61327880D02*
X186453904Y-60661214D01*
X186453904Y-60756452D02*
X186501523Y-60708833D01*
X186596761Y-60661214D01*
X186739619Y-60661214D01*
X186834857Y-60708833D01*
X186882476Y-60804071D01*
X186882476Y-61327880D01*
X186882476Y-60804071D02*
X186930095Y-60708833D01*
X187025333Y-60661214D01*
X187168190Y-60661214D01*
X187263428Y-60708833D01*
X187311047Y-60804071D01*
X187311047Y-61327880D01*
X187787238Y-61327880D02*
X187787238Y-60327880D01*
X187787238Y-60708833D02*
X187882476Y-60661214D01*
X188072952Y-60661214D01*
X188168190Y-60708833D01*
X188215809Y-60756452D01*
X188263428Y-60851690D01*
X188263428Y-61137404D01*
X188215809Y-61232642D01*
X188168190Y-61280261D01*
X188072952Y-61327880D01*
X187882476Y-61327880D01*
X187787238Y-61280261D01*
X189072952Y-61280261D02*
X188977714Y-61327880D01*
X188787238Y-61327880D01*
X188692000Y-61280261D01*
X188644380Y-61185023D01*
X188644380Y-60804071D01*
X188692000Y-60708833D01*
X188787238Y-60661214D01*
X188977714Y-60661214D01*
X189072952Y-60708833D01*
X189120571Y-60804071D01*
X189120571Y-60899309D01*
X188644380Y-60994547D01*
X189549142Y-61327880D02*
X189549142Y-60661214D01*
X189549142Y-60851690D02*
X189596761Y-60756452D01*
X189644380Y-60708833D01*
X189739619Y-60661214D01*
X189834857Y-60661214D01*
X190215809Y-61280261D02*
X190215809Y-61327880D01*
X190168190Y-61423119D01*
X190120571Y-61470738D01*
X191358666Y-60423119D02*
X191406285Y-60375500D01*
X191501523Y-60327880D01*
X191739619Y-60327880D01*
X191834857Y-60375500D01*
X191882476Y-60423119D01*
X191930095Y-60518357D01*
X191930095Y-60613595D01*
X191882476Y-60756452D01*
X191311047Y-61327880D01*
X191930095Y-61327880D01*
X192549142Y-60327880D02*
X192644380Y-60327880D01*
X192739619Y-60375500D01*
X192787238Y-60423119D01*
X192834857Y-60518357D01*
X192882476Y-60708833D01*
X192882476Y-60946928D01*
X192834857Y-61137404D01*
X192787238Y-61232642D01*
X192739619Y-61280261D01*
X192644380Y-61327880D01*
X192549142Y-61327880D01*
X192453904Y-61280261D01*
X192406285Y-61232642D01*
X192358666Y-61137404D01*
X192311047Y-60946928D01*
X192311047Y-60708833D01*
X192358666Y-60518357D01*
X192406285Y-60423119D01*
X192453904Y-60375500D01*
X192549142Y-60327880D01*
X193263428Y-60423119D02*
X193311047Y-60375500D01*
X193406285Y-60327880D01*
X193644380Y-60327880D01*
X193739619Y-60375500D01*
X193787238Y-60423119D01*
X193834857Y-60518357D01*
X193834857Y-60613595D01*
X193787238Y-60756452D01*
X193215809Y-61327880D01*
X193834857Y-61327880D01*
X194787238Y-61327880D02*
X194215809Y-61327880D01*
X194501523Y-61327880D02*
X194501523Y-60327880D01*
X194406285Y-60470738D01*
X194311047Y-60565976D01*
X194215809Y-60613595D01*
X195120571Y-61708833D02*
X195168190Y-61661214D01*
X195263428Y-61518357D01*
X195311047Y-61423119D01*
X195358666Y-61280261D01*
X195406285Y-61042166D01*
X195406285Y-60851690D01*
X195358666Y-60613595D01*
X195311047Y-60470738D01*
X195263428Y-60375500D01*
X195168190Y-60232642D01*
X195120571Y-60185023D01*
X173168190Y-63358833D02*
X173120571Y-63311214D01*
X173025333Y-63168357D01*
X172977714Y-63073119D01*
X172930095Y-62930261D01*
X172882476Y-62692166D01*
X172882476Y-62501690D01*
X172930095Y-62263595D01*
X172977714Y-62120738D01*
X173025333Y-62025500D01*
X173120571Y-61882642D01*
X173168190Y-61835023D01*
X173977714Y-62930261D02*
X173882476Y-62977880D01*
X173692000Y-62977880D01*
X173596761Y-62930261D01*
X173549142Y-62882642D01*
X173501523Y-62787404D01*
X173501523Y-62501690D01*
X173549142Y-62406452D01*
X173596761Y-62358833D01*
X173692000Y-62311214D01*
X173882476Y-62311214D01*
X173977714Y-62358833D01*
X174311047Y-63358833D02*
X174358666Y-63311214D01*
X174453904Y-63168357D01*
X174501523Y-63073119D01*
X174549142Y-62930261D01*
X174596761Y-62692166D01*
X174596761Y-62501690D01*
X174549142Y-62263595D01*
X174501523Y-62120738D01*
X174453904Y-62025500D01*
X174358666Y-61882642D01*
X174311047Y-61835023D01*
X175787238Y-62930261D02*
X175930095Y-62977880D01*
X176168190Y-62977880D01*
X176263428Y-62930261D01*
X176311047Y-62882642D01*
X176358666Y-62787404D01*
X176358666Y-62692166D01*
X176311047Y-62596928D01*
X176263428Y-62549309D01*
X176168190Y-62501690D01*
X175977714Y-62454071D01*
X175882476Y-62406452D01*
X175834857Y-62358833D01*
X175787238Y-62263595D01*
X175787238Y-62168357D01*
X175834857Y-62073119D01*
X175882476Y-62025500D01*
X175977714Y-61977880D01*
X176215809Y-61977880D01*
X176358666Y-62025500D01*
X176787238Y-62882642D02*
X176834857Y-62930261D01*
X176787238Y-62977880D01*
X176739619Y-62930261D01*
X176787238Y-62882642D01*
X176787238Y-62977880D01*
X177834857Y-62977880D02*
X177501523Y-62501690D01*
X177263428Y-62977880D02*
X177263428Y-61977880D01*
X177644380Y-61977880D01*
X177739619Y-62025500D01*
X177787238Y-62073119D01*
X177834857Y-62168357D01*
X177834857Y-62311214D01*
X177787238Y-62406452D01*
X177739619Y-62454071D01*
X177644380Y-62501690D01*
X177263428Y-62501690D01*
X178263428Y-62882642D02*
X178311047Y-62930261D01*
X178263428Y-62977880D01*
X178215809Y-62930261D01*
X178263428Y-62882642D01*
X178263428Y-62977880D01*
X178739619Y-61977880D02*
X178739619Y-62787404D01*
X178787238Y-62882642D01*
X178834857Y-62930261D01*
X178930095Y-62977880D01*
X179120571Y-62977880D01*
X179215809Y-62930261D01*
X179263428Y-62882642D01*
X179311047Y-62787404D01*
X179311047Y-61977880D01*
X179739619Y-62930261D02*
X179834857Y-62977880D01*
X180025333Y-62977880D01*
X180120571Y-62930261D01*
X180168190Y-62835023D01*
X180168190Y-62787404D01*
X180120571Y-62692166D01*
X180025333Y-62644547D01*
X179882476Y-62644547D01*
X179787238Y-62596928D01*
X179739619Y-62501690D01*
X179739619Y-62454071D01*
X179787238Y-62358833D01*
X179882476Y-62311214D01*
X180025333Y-62311214D01*
X180120571Y-62358833D01*
X180596761Y-62977880D02*
X180596761Y-61977880D01*
X181025333Y-62977880D02*
X181025333Y-62454071D01*
X180977714Y-62358833D01*
X180882476Y-62311214D01*
X180739619Y-62311214D01*
X180644380Y-62358833D01*
X180596761Y-62406452D01*
X181882476Y-62930261D02*
X181787238Y-62977880D01*
X181596761Y-62977880D01*
X181501523Y-62930261D01*
X181453904Y-62835023D01*
X181453904Y-62454071D01*
X181501523Y-62358833D01*
X181596761Y-62311214D01*
X181787238Y-62311214D01*
X181882476Y-62358833D01*
X181930095Y-62454071D01*
X181930095Y-62549309D01*
X181453904Y-62644547D01*
X182358666Y-62977880D02*
X182358666Y-62311214D01*
X182358666Y-62501690D02*
X182406285Y-62406452D01*
X182453904Y-62358833D01*
X182549142Y-62311214D01*
X182644380Y-62311214D01*
X68072952Y-80977880D02*
X68739619Y-80977880D01*
X68072952Y-81977880D01*
X68739619Y-81977880D01*
X69025333Y-80977880D02*
X69692000Y-81977880D01*
X69692000Y-80977880D02*
X69025333Y-81977880D01*
X70787238Y-81930261D02*
X70930095Y-81977880D01*
X71168190Y-81977880D01*
X71263428Y-81930261D01*
X71311047Y-81882642D01*
X71358666Y-81787404D01*
X71358666Y-81692166D01*
X71311047Y-81596928D01*
X71263428Y-81549309D01*
X71168190Y-81501690D01*
X70977714Y-81454071D01*
X70882476Y-81406452D01*
X70834857Y-81358833D01*
X70787238Y-81263595D01*
X70787238Y-81168357D01*
X70834857Y-81073119D01*
X70882476Y-81025500D01*
X70977714Y-80977880D01*
X71215809Y-80977880D01*
X71358666Y-81025500D01*
X71787238Y-81311214D02*
X71787238Y-82311214D01*
X71787238Y-81358833D02*
X71882476Y-81311214D01*
X72072952Y-81311214D01*
X72168190Y-81358833D01*
X72215809Y-81406452D01*
X72263428Y-81501690D01*
X72263428Y-81787404D01*
X72215809Y-81882642D01*
X72168190Y-81930261D01*
X72072952Y-81977880D01*
X71882476Y-81977880D01*
X71787238Y-81930261D01*
X73072952Y-81930261D02*
X72977714Y-81977880D01*
X72787238Y-81977880D01*
X72692000Y-81930261D01*
X72644380Y-81835023D01*
X72644380Y-81454071D01*
X72692000Y-81358833D01*
X72787238Y-81311214D01*
X72977714Y-81311214D01*
X73072952Y-81358833D01*
X73120571Y-81454071D01*
X73120571Y-81549309D01*
X72644380Y-81644547D01*
X73977714Y-81930261D02*
X73882476Y-81977880D01*
X73692000Y-81977880D01*
X73596761Y-81930261D01*
X73549142Y-81882642D01*
X73501523Y-81787404D01*
X73501523Y-81501690D01*
X73549142Y-81406452D01*
X73596761Y-81358833D01*
X73692000Y-81311214D01*
X73882476Y-81311214D01*
X73977714Y-81358833D01*
X74263428Y-81311214D02*
X74644380Y-81311214D01*
X74406285Y-80977880D02*
X74406285Y-81835023D01*
X74453904Y-81930261D01*
X74549142Y-81977880D01*
X74644380Y-81977880D01*
X74977714Y-81977880D02*
X74977714Y-81311214D01*
X74977714Y-81501690D02*
X75025333Y-81406452D01*
X75072952Y-81358833D01*
X75168190Y-81311214D01*
X75263428Y-81311214D01*
X76025333Y-81311214D02*
X76025333Y-81977880D01*
X75596761Y-81311214D02*
X75596761Y-81835023D01*
X75644380Y-81930261D01*
X75739619Y-81977880D01*
X75882476Y-81977880D01*
X75977714Y-81930261D01*
X76025333Y-81882642D01*
X76501523Y-81977880D02*
X76501523Y-81311214D01*
X76501523Y-81406452D02*
X76549142Y-81358833D01*
X76644380Y-81311214D01*
X76787238Y-81311214D01*
X76882476Y-81358833D01*
X76930095Y-81454071D01*
X76930095Y-81977880D01*
X76930095Y-81454071D02*
X76977714Y-81358833D01*
X77072952Y-81311214D01*
X77215809Y-81311214D01*
X77311047Y-81358833D01*
X77358666Y-81454071D01*
X77358666Y-81977880D01*
X77834857Y-81596928D02*
X78596761Y-81596928D01*
X78215809Y-81977880D02*
X78215809Y-81215976D01*
X80358666Y-81977880D02*
X79787238Y-81977880D01*
X80072952Y-81977880D02*
X80072952Y-80977880D01*
X79977714Y-81120738D01*
X79882476Y-81215976D01*
X79787238Y-81263595D01*
X80739619Y-81073119D02*
X80787238Y-81025500D01*
X80882476Y-80977880D01*
X81120571Y-80977880D01*
X81215809Y-81025500D01*
X81263428Y-81073119D01*
X81311047Y-81168357D01*
X81311047Y-81263595D01*
X81263428Y-81406452D01*
X80692000Y-81977880D01*
X81311047Y-81977880D01*
X81882476Y-81406452D02*
X81787238Y-81358833D01*
X81739619Y-81311214D01*
X81692000Y-81215976D01*
X81692000Y-81168357D01*
X81739619Y-81073119D01*
X81787238Y-81025500D01*
X81882476Y-80977880D01*
X82072952Y-80977880D01*
X82168190Y-81025500D01*
X82215809Y-81073119D01*
X82263428Y-81168357D01*
X82263428Y-81215976D01*
X82215809Y-81311214D01*
X82168190Y-81358833D01*
X82072952Y-81406452D01*
X81882476Y-81406452D01*
X81787238Y-81454071D01*
X81739619Y-81501690D01*
X81692000Y-81596928D01*
X81692000Y-81787404D01*
X81739619Y-81882642D01*
X81787238Y-81930261D01*
X81882476Y-81977880D01*
X82072952Y-81977880D01*
X82168190Y-81930261D01*
X82215809Y-81882642D01*
X82263428Y-81787404D01*
X82263428Y-81596928D01*
X82215809Y-81501690D01*
X82168190Y-81454071D01*
X82072952Y-81406452D01*
X82692000Y-81977880D02*
X82692000Y-80977880D01*
X83263428Y-81977880D02*
X82834857Y-81406452D01*
X83263428Y-80977880D02*
X82692000Y-81549309D01*
X72311047Y-83532642D02*
X72263428Y-83580261D01*
X72120571Y-83627880D01*
X72025333Y-83627880D01*
X71882476Y-83580261D01*
X71787238Y-83485023D01*
X71739619Y-83389785D01*
X71692000Y-83199309D01*
X71692000Y-83056452D01*
X71739619Y-82865976D01*
X71787238Y-82770738D01*
X71882476Y-82675500D01*
X72025333Y-82627880D01*
X72120571Y-82627880D01*
X72263428Y-82675500D01*
X72311047Y-82723119D01*
X72882476Y-83627880D02*
X72787238Y-83580261D01*
X72739619Y-83532642D01*
X72692000Y-83437404D01*
X72692000Y-83151690D01*
X72739619Y-83056452D01*
X72787238Y-83008833D01*
X72882476Y-82961214D01*
X73025333Y-82961214D01*
X73120571Y-83008833D01*
X73168190Y-83056452D01*
X73215809Y-83151690D01*
X73215809Y-83437404D01*
X73168190Y-83532642D01*
X73120571Y-83580261D01*
X73025333Y-83627880D01*
X72882476Y-83627880D01*
X73644380Y-83627880D02*
X73644380Y-82961214D01*
X73644380Y-83056452D02*
X73692000Y-83008833D01*
X73787238Y-82961214D01*
X73930095Y-82961214D01*
X74025333Y-83008833D01*
X74072952Y-83104071D01*
X74072952Y-83627880D01*
X74072952Y-83104071D02*
X74120571Y-83008833D01*
X74215809Y-82961214D01*
X74358666Y-82961214D01*
X74453904Y-83008833D01*
X74501523Y-83104071D01*
X74501523Y-83627880D01*
X74977714Y-82961214D02*
X74977714Y-83961214D01*
X74977714Y-83008833D02*
X75072952Y-82961214D01*
X75263428Y-82961214D01*
X75358666Y-83008833D01*
X75406285Y-83056452D01*
X75453904Y-83151690D01*
X75453904Y-83437404D01*
X75406285Y-83532642D01*
X75358666Y-83580261D01*
X75263428Y-83627880D01*
X75072952Y-83627880D01*
X74977714Y-83580261D01*
X76311047Y-83627880D02*
X76311047Y-83104071D01*
X76263428Y-83008833D01*
X76168190Y-82961214D01*
X75977714Y-82961214D01*
X75882476Y-83008833D01*
X76311047Y-83580261D02*
X76215809Y-83627880D01*
X75977714Y-83627880D01*
X75882476Y-83580261D01*
X75834857Y-83485023D01*
X75834857Y-83389785D01*
X75882476Y-83294547D01*
X75977714Y-83246928D01*
X76215809Y-83246928D01*
X76311047Y-83199309D01*
X76644380Y-82961214D02*
X77025333Y-82961214D01*
X76787238Y-82627880D02*
X76787238Y-83485023D01*
X76834857Y-83580261D01*
X76930095Y-83627880D01*
X77025333Y-83627880D01*
X77358666Y-83627880D02*
X77358666Y-82961214D01*
X77358666Y-82627880D02*
X77311047Y-82675500D01*
X77358666Y-82723119D01*
X77406285Y-82675500D01*
X77358666Y-82627880D01*
X77358666Y-82723119D01*
X77834857Y-83627880D02*
X77834857Y-82627880D01*
X77834857Y-83008833D02*
X77930095Y-82961214D01*
X78120571Y-82961214D01*
X78215809Y-83008833D01*
X78263428Y-83056452D01*
X78311047Y-83151690D01*
X78311047Y-83437404D01*
X78263428Y-83532642D01*
X78215809Y-83580261D01*
X78120571Y-83627880D01*
X77930095Y-83627880D01*
X77834857Y-83580261D01*
X78882476Y-83627880D02*
X78787238Y-83580261D01*
X78739619Y-83485023D01*
X78739619Y-82627880D01*
X79644380Y-83580261D02*
X79549142Y-83627880D01*
X79358666Y-83627880D01*
X79263428Y-83580261D01*
X79215809Y-83485023D01*
X79215809Y-83104071D01*
X79263428Y-83008833D01*
X79358666Y-82961214D01*
X79549142Y-82961214D01*
X79644380Y-83008833D01*
X79692000Y-83104071D01*
X79692000Y-83199309D01*
X79215809Y-83294547D01*
X73072952Y-85277880D02*
X72739619Y-84801690D01*
X72501523Y-85277880D02*
X72501523Y-84277880D01*
X72882476Y-84277880D01*
X72977714Y-84325500D01*
X73025333Y-84373119D01*
X73072952Y-84468357D01*
X73072952Y-84611214D01*
X73025333Y-84706452D01*
X72977714Y-84754071D01*
X72882476Y-84801690D01*
X72501523Y-84801690D01*
X74025333Y-84325500D02*
X73930095Y-84277880D01*
X73787238Y-84277880D01*
X73644380Y-84325500D01*
X73549142Y-84420738D01*
X73501523Y-84515976D01*
X73453904Y-84706452D01*
X73453904Y-84849309D01*
X73501523Y-85039785D01*
X73549142Y-85135023D01*
X73644380Y-85230261D01*
X73787238Y-85277880D01*
X73882476Y-85277880D01*
X74025333Y-85230261D01*
X74072952Y-85182642D01*
X74072952Y-84849309D01*
X73882476Y-84849309D01*
X74834857Y-84754071D02*
X74977714Y-84801690D01*
X75025333Y-84849309D01*
X75072952Y-84944547D01*
X75072952Y-85087404D01*
X75025333Y-85182642D01*
X74977714Y-85230261D01*
X74882476Y-85277880D01*
X74501523Y-85277880D01*
X74501523Y-84277880D01*
X74834857Y-84277880D01*
X74930095Y-84325500D01*
X74977714Y-84373119D01*
X75025333Y-84468357D01*
X75025333Y-84563595D01*
X74977714Y-84658833D01*
X74930095Y-84706452D01*
X74834857Y-84754071D01*
X74501523Y-84754071D01*
X76263428Y-85277880D02*
X76263428Y-84277880D01*
X76644380Y-84277880D01*
X76739619Y-84325500D01*
X76787238Y-84373119D01*
X76834857Y-84468357D01*
X76834857Y-84611214D01*
X76787238Y-84706452D01*
X76739619Y-84754071D01*
X76644380Y-84801690D01*
X76263428Y-84801690D01*
X77406285Y-85277880D02*
X77311047Y-85230261D01*
X77263428Y-85182642D01*
X77215809Y-85087404D01*
X77215809Y-84801690D01*
X77263428Y-84706452D01*
X77311047Y-84658833D01*
X77406285Y-84611214D01*
X77549142Y-84611214D01*
X77644380Y-84658833D01*
X77692000Y-84706452D01*
X77739619Y-84801690D01*
X77739619Y-85087404D01*
X77692000Y-85182642D01*
X77644380Y-85230261D01*
X77549142Y-85277880D01*
X77406285Y-85277880D01*
X78168190Y-85277880D02*
X78168190Y-84611214D01*
X78168190Y-84801690D02*
X78215809Y-84706452D01*
X78263428Y-84658833D01*
X78358666Y-84611214D01*
X78453904Y-84611214D01*
X78644380Y-84611214D02*
X79025333Y-84611214D01*
X78787238Y-84277880D02*
X78787238Y-85135023D01*
X78834857Y-85230261D01*
X78930095Y-85277880D01*
X79025333Y-85277880D01*
X183125333Y-56004071D02*
X183458666Y-56004071D01*
X183601523Y-56527880D02*
X183125333Y-56527880D01*
X183125333Y-55527880D01*
X183601523Y-55527880D01*
X183934857Y-56527880D02*
X184458666Y-55861214D01*
X183934857Y-55861214D02*
X184458666Y-56527880D01*
X184839619Y-55861214D02*
X184839619Y-56861214D01*
X184839619Y-55908833D02*
X184934857Y-55861214D01*
X185125333Y-55861214D01*
X185220571Y-55908833D01*
X185268190Y-55956452D01*
X185315809Y-56051690D01*
X185315809Y-56337404D01*
X185268190Y-56432642D01*
X185220571Y-56480261D01*
X185125333Y-56527880D01*
X184934857Y-56527880D01*
X184839619Y-56480261D01*
X186172952Y-56527880D02*
X186172952Y-56004071D01*
X186125333Y-55908833D01*
X186030095Y-55861214D01*
X185839619Y-55861214D01*
X185744380Y-55908833D01*
X186172952Y-56480261D02*
X186077714Y-56527880D01*
X185839619Y-56527880D01*
X185744380Y-56480261D01*
X185696761Y-56385023D01*
X185696761Y-56289785D01*
X185744380Y-56194547D01*
X185839619Y-56146928D01*
X186077714Y-56146928D01*
X186172952Y-56099309D01*
X186649142Y-55861214D02*
X186649142Y-56527880D01*
X186649142Y-55956452D02*
X186696761Y-55908833D01*
X186792000Y-55861214D01*
X186934857Y-55861214D01*
X187030095Y-55908833D01*
X187077714Y-56004071D01*
X187077714Y-56527880D01*
X187506285Y-56480261D02*
X187601523Y-56527880D01*
X187792000Y-56527880D01*
X187887238Y-56480261D01*
X187934857Y-56385023D01*
X187934857Y-56337404D01*
X187887238Y-56242166D01*
X187792000Y-56194547D01*
X187649142Y-56194547D01*
X187553904Y-56146928D01*
X187506285Y-56051690D01*
X187506285Y-56004071D01*
X187553904Y-55908833D01*
X187649142Y-55861214D01*
X187792000Y-55861214D01*
X187887238Y-55908833D01*
X188363428Y-56527880D02*
X188363428Y-55861214D01*
X188363428Y-55527880D02*
X188315809Y-55575500D01*
X188363428Y-55623119D01*
X188411047Y-55575500D01*
X188363428Y-55527880D01*
X188363428Y-55623119D01*
X188982476Y-56527880D02*
X188887238Y-56480261D01*
X188839619Y-56432642D01*
X188792000Y-56337404D01*
X188792000Y-56051690D01*
X188839619Y-55956452D01*
X188887238Y-55908833D01*
X188982476Y-55861214D01*
X189125333Y-55861214D01*
X189220571Y-55908833D01*
X189268190Y-55956452D01*
X189315809Y-56051690D01*
X189315809Y-56337404D01*
X189268190Y-56432642D01*
X189220571Y-56480261D01*
X189125333Y-56527880D01*
X188982476Y-56527880D01*
X189744380Y-55861214D02*
X189744380Y-56527880D01*
X189744380Y-55956452D02*
X189792000Y-55908833D01*
X189887238Y-55861214D01*
X190030095Y-55861214D01*
X190125333Y-55908833D01*
X190172952Y-56004071D01*
X190172952Y-56527880D01*
X191982476Y-56432642D02*
X191934857Y-56480261D01*
X191792000Y-56527880D01*
X191696761Y-56527880D01*
X191553904Y-56480261D01*
X191458666Y-56385023D01*
X191411047Y-56289785D01*
X191363428Y-56099309D01*
X191363428Y-55956452D01*
X191411047Y-55765976D01*
X191458666Y-55670738D01*
X191553904Y-55575500D01*
X191696761Y-55527880D01*
X191792000Y-55527880D01*
X191934857Y-55575500D01*
X191982476Y-55623119D01*
X192553904Y-56527880D02*
X192458666Y-56480261D01*
X192411047Y-56432642D01*
X192363428Y-56337404D01*
X192363428Y-56051690D01*
X192411047Y-55956452D01*
X192458666Y-55908833D01*
X192553904Y-55861214D01*
X192696761Y-55861214D01*
X192792000Y-55908833D01*
X192839619Y-55956452D01*
X192887238Y-56051690D01*
X192887238Y-56337404D01*
X192839619Y-56432642D01*
X192792000Y-56480261D01*
X192696761Y-56527880D01*
X192553904Y-56527880D01*
X193315809Y-55861214D02*
X193315809Y-56527880D01*
X193315809Y-55956452D02*
X193363428Y-55908833D01*
X193458666Y-55861214D01*
X193601523Y-55861214D01*
X193696761Y-55908833D01*
X193744380Y-56004071D01*
X193744380Y-56527880D01*
X194220571Y-55861214D02*
X194220571Y-56527880D01*
X194220571Y-55956452D02*
X194268190Y-55908833D01*
X194363428Y-55861214D01*
X194506285Y-55861214D01*
X194601523Y-55908833D01*
X194649142Y-56004071D01*
X194649142Y-56527880D01*
X195506285Y-56480261D02*
X195411047Y-56527880D01*
X195220571Y-56527880D01*
X195125333Y-56480261D01*
X195077714Y-56385023D01*
X195077714Y-56004071D01*
X195125333Y-55908833D01*
X195220571Y-55861214D01*
X195411047Y-55861214D01*
X195506285Y-55908833D01*
X195553904Y-56004071D01*
X195553904Y-56099309D01*
X195077714Y-56194547D01*
X196411047Y-56480261D02*
X196315809Y-56527880D01*
X196125333Y-56527880D01*
X196030095Y-56480261D01*
X195982476Y-56432642D01*
X195934857Y-56337404D01*
X195934857Y-56051690D01*
X195982476Y-55956452D01*
X196030095Y-55908833D01*
X196125333Y-55861214D01*
X196315809Y-55861214D01*
X196411047Y-55908833D01*
X196696761Y-55861214D02*
X197077714Y-55861214D01*
X196839619Y-55527880D02*
X196839619Y-56385023D01*
X196887238Y-56480261D01*
X196982476Y-56527880D01*
X197077714Y-56527880D01*
X197553904Y-56527880D02*
X197458666Y-56480261D01*
X197411047Y-56432642D01*
X197363428Y-56337404D01*
X197363428Y-56051690D01*
X197411047Y-55956452D01*
X197458666Y-55908833D01*
X197553904Y-55861214D01*
X197696761Y-55861214D01*
X197792000Y-55908833D01*
X197839619Y-55956452D01*
X197887238Y-56051690D01*
X197887238Y-56337404D01*
X197839619Y-56432642D01*
X197792000Y-56480261D01*
X197696761Y-56527880D01*
X197553904Y-56527880D01*
X198315809Y-56527880D02*
X198315809Y-55861214D01*
X198315809Y-56051690D02*
X198363428Y-55956452D01*
X198411047Y-55908833D01*
X198506285Y-55861214D01*
X198601523Y-55861214D01*
X216272952Y-102427880D02*
X216939619Y-102427880D01*
X216511047Y-103427880D01*
X217749142Y-102761214D02*
X217749142Y-103427880D01*
X217511047Y-102380261D02*
X217272952Y-103094547D01*
X217892000Y-103094547D01*
X218749142Y-103427880D02*
X218272952Y-103427880D01*
X218272952Y-102427880D01*
X219034857Y-103380261D02*
X219177714Y-103427880D01*
X219415809Y-103427880D01*
X219511047Y-103380261D01*
X219558666Y-103332642D01*
X219606285Y-103237404D01*
X219606285Y-103142166D01*
X219558666Y-103046928D01*
X219511047Y-102999309D01*
X219415809Y-102951690D01*
X219225333Y-102904071D01*
X219130095Y-102856452D01*
X219082476Y-102808833D01*
X219034857Y-102713595D01*
X219034857Y-102618357D01*
X219082476Y-102523119D01*
X219130095Y-102475500D01*
X219225333Y-102427880D01*
X219463428Y-102427880D01*
X219606285Y-102475500D01*
X219939619Y-102427880D02*
X220558666Y-102427880D01*
X220225333Y-102808833D01*
X220368190Y-102808833D01*
X220463428Y-102856452D01*
X220511047Y-102904071D01*
X220558666Y-102999309D01*
X220558666Y-103237404D01*
X220511047Y-103332642D01*
X220463428Y-103380261D01*
X220368190Y-103427880D01*
X220082476Y-103427880D01*
X219987238Y-103380261D01*
X219939619Y-103332642D01*
X220892000Y-102427880D02*
X221558666Y-102427880D01*
X221130095Y-103427880D01*
X221844380Y-102427880D02*
X222463428Y-102427880D01*
X222130095Y-102808833D01*
X222272952Y-102808833D01*
X222368190Y-102856452D01*
X222415809Y-102904071D01*
X222463428Y-102999309D01*
X222463428Y-103237404D01*
X222415809Y-103332642D01*
X222368190Y-103380261D01*
X222272952Y-103427880D01*
X221987238Y-103427880D01*
X221892000Y-103380261D01*
X221844380Y-103332642D01*
X187972952Y-103027880D02*
X188639619Y-103027880D01*
X188211047Y-104027880D01*
X189449142Y-103361214D02*
X189449142Y-104027880D01*
X189211047Y-102980261D02*
X188972952Y-103694547D01*
X189592000Y-103694547D01*
X190449142Y-104027880D02*
X189972952Y-104027880D01*
X189972952Y-103027880D01*
X190734857Y-103980261D02*
X190877714Y-104027880D01*
X191115809Y-104027880D01*
X191211047Y-103980261D01*
X191258666Y-103932642D01*
X191306285Y-103837404D01*
X191306285Y-103742166D01*
X191258666Y-103646928D01*
X191211047Y-103599309D01*
X191115809Y-103551690D01*
X190925333Y-103504071D01*
X190830095Y-103456452D01*
X190782476Y-103408833D01*
X190734857Y-103313595D01*
X190734857Y-103218357D01*
X190782476Y-103123119D01*
X190830095Y-103075500D01*
X190925333Y-103027880D01*
X191163428Y-103027880D01*
X191306285Y-103075500D01*
X191639619Y-103027880D02*
X192258666Y-103027880D01*
X191925333Y-103408833D01*
X192068190Y-103408833D01*
X192163428Y-103456452D01*
X192211047Y-103504071D01*
X192258666Y-103599309D01*
X192258666Y-103837404D01*
X192211047Y-103932642D01*
X192163428Y-103980261D01*
X192068190Y-104027880D01*
X191782476Y-104027880D01*
X191687238Y-103980261D01*
X191639619Y-103932642D01*
X192592000Y-103027880D02*
X193258666Y-103027880D01*
X192830095Y-104027880D01*
X193544380Y-103027880D02*
X194163428Y-103027880D01*
X193830095Y-103408833D01*
X193972952Y-103408833D01*
X194068190Y-103456452D01*
X194115809Y-103504071D01*
X194163428Y-103599309D01*
X194163428Y-103837404D01*
X194115809Y-103932642D01*
X194068190Y-103980261D01*
X193972952Y-104027880D01*
X193687238Y-104027880D01*
X193592000Y-103980261D01*
X193544380Y-103932642D01*
X159772952Y-102927880D02*
X160439619Y-102927880D01*
X160011047Y-103927880D01*
X161249142Y-103261214D02*
X161249142Y-103927880D01*
X161011047Y-102880261D02*
X160772952Y-103594547D01*
X161392000Y-103594547D01*
X162249142Y-103927880D02*
X161772952Y-103927880D01*
X161772952Y-102927880D01*
X162534857Y-103880261D02*
X162677714Y-103927880D01*
X162915809Y-103927880D01*
X163011047Y-103880261D01*
X163058666Y-103832642D01*
X163106285Y-103737404D01*
X163106285Y-103642166D01*
X163058666Y-103546928D01*
X163011047Y-103499309D01*
X162915809Y-103451690D01*
X162725333Y-103404071D01*
X162630095Y-103356452D01*
X162582476Y-103308833D01*
X162534857Y-103213595D01*
X162534857Y-103118357D01*
X162582476Y-103023119D01*
X162630095Y-102975500D01*
X162725333Y-102927880D01*
X162963428Y-102927880D01*
X163106285Y-102975500D01*
X163439619Y-102927880D02*
X164058666Y-102927880D01*
X163725333Y-103308833D01*
X163868190Y-103308833D01*
X163963428Y-103356452D01*
X164011047Y-103404071D01*
X164058666Y-103499309D01*
X164058666Y-103737404D01*
X164011047Y-103832642D01*
X163963428Y-103880261D01*
X163868190Y-103927880D01*
X163582476Y-103927880D01*
X163487238Y-103880261D01*
X163439619Y-103832642D01*
X164392000Y-102927880D02*
X165058666Y-102927880D01*
X164630095Y-103927880D01*
X165344380Y-102927880D02*
X165963428Y-102927880D01*
X165630095Y-103308833D01*
X165772952Y-103308833D01*
X165868190Y-103356452D01*
X165915809Y-103404071D01*
X165963428Y-103499309D01*
X165963428Y-103737404D01*
X165915809Y-103832642D01*
X165868190Y-103880261D01*
X165772952Y-103927880D01*
X165487238Y-103927880D01*
X165392000Y-103880261D01*
X165344380Y-103832642D01*
X174672952Y-77927880D02*
X175339619Y-77927880D01*
X174911047Y-78927880D01*
X176149142Y-78261214D02*
X176149142Y-78927880D01*
X175911047Y-77880261D02*
X175672952Y-78594547D01*
X176292000Y-78594547D01*
X177149142Y-78927880D02*
X176672952Y-78927880D01*
X176672952Y-77927880D01*
X177434857Y-78880261D02*
X177577714Y-78927880D01*
X177815809Y-78927880D01*
X177911047Y-78880261D01*
X177958666Y-78832642D01*
X178006285Y-78737404D01*
X178006285Y-78642166D01*
X177958666Y-78546928D01*
X177911047Y-78499309D01*
X177815809Y-78451690D01*
X177625333Y-78404071D01*
X177530095Y-78356452D01*
X177482476Y-78308833D01*
X177434857Y-78213595D01*
X177434857Y-78118357D01*
X177482476Y-78023119D01*
X177530095Y-77975500D01*
X177625333Y-77927880D01*
X177863428Y-77927880D01*
X178006285Y-77975500D01*
X178387238Y-78023119D02*
X178434857Y-77975500D01*
X178530095Y-77927880D01*
X178768190Y-77927880D01*
X178863428Y-77975500D01*
X178911047Y-78023119D01*
X178958666Y-78118357D01*
X178958666Y-78213595D01*
X178911047Y-78356452D01*
X178339619Y-78927880D01*
X178958666Y-78927880D01*
X179815809Y-78261214D02*
X179815809Y-78927880D01*
X179577714Y-77880261D02*
X179339619Y-78594547D01*
X179958666Y-78594547D01*
X180815809Y-77927880D02*
X180339619Y-77927880D01*
X180292000Y-78404071D01*
X180339619Y-78356452D01*
X180434857Y-78308833D01*
X180672952Y-78308833D01*
X180768190Y-78356452D01*
X180815809Y-78404071D01*
X180863428Y-78499309D01*
X180863428Y-78737404D01*
X180815809Y-78832642D01*
X180768190Y-78880261D01*
X180672952Y-78927880D01*
X180434857Y-78927880D01*
X180339619Y-78880261D01*
X180292000Y-78832642D01*
X215882476Y-78475500D02*
X215787238Y-78427880D01*
X215644380Y-78427880D01*
X215501523Y-78475500D01*
X215406285Y-78570738D01*
X215358666Y-78665976D01*
X215311047Y-78856452D01*
X215311047Y-78999309D01*
X215358666Y-79189785D01*
X215406285Y-79285023D01*
X215501523Y-79380261D01*
X215644380Y-79427880D01*
X215739619Y-79427880D01*
X215882476Y-79380261D01*
X215930095Y-79332642D01*
X215930095Y-78999309D01*
X215739619Y-78999309D01*
X216311047Y-79142166D02*
X216787238Y-79142166D01*
X216215809Y-79427880D02*
X216549142Y-78427880D01*
X216882476Y-79427880D01*
X217692000Y-79427880D02*
X217215809Y-79427880D01*
X217215809Y-78427880D01*
X219311047Y-79427880D02*
X218739619Y-79427880D01*
X219025333Y-79427880D02*
X219025333Y-78427880D01*
X218930095Y-78570738D01*
X218834857Y-78665976D01*
X218739619Y-78713595D01*
X220168190Y-78427880D02*
X219977714Y-78427880D01*
X219882476Y-78475500D01*
X219834857Y-78523119D01*
X219739619Y-78665976D01*
X219692000Y-78856452D01*
X219692000Y-79237404D01*
X219739619Y-79332642D01*
X219787238Y-79380261D01*
X219882476Y-79427880D01*
X220072952Y-79427880D01*
X220168190Y-79380261D01*
X220215809Y-79332642D01*
X220263428Y-79237404D01*
X220263428Y-78999309D01*
X220215809Y-78904071D01*
X220168190Y-78856452D01*
X220072952Y-78808833D01*
X219882476Y-78808833D01*
X219787238Y-78856452D01*
X219739619Y-78904071D01*
X219692000Y-78999309D01*
X220549142Y-78427880D02*
X220882476Y-79427880D01*
X221215809Y-78427880D01*
X221692000Y-78856452D02*
X221596761Y-78808833D01*
X221549142Y-78761214D01*
X221501523Y-78665976D01*
X221501523Y-78618357D01*
X221549142Y-78523119D01*
X221596761Y-78475500D01*
X221692000Y-78427880D01*
X221882476Y-78427880D01*
X221977714Y-78475500D01*
X222025333Y-78523119D01*
X222072952Y-78618357D01*
X222072952Y-78665976D01*
X222025333Y-78761214D01*
X221977714Y-78808833D01*
X221882476Y-78856452D01*
X221692000Y-78856452D01*
X221596761Y-78904071D01*
X221549142Y-78951690D01*
X221501523Y-79046928D01*
X221501523Y-79237404D01*
X221549142Y-79332642D01*
X221596761Y-79380261D01*
X221692000Y-79427880D01*
X221882476Y-79427880D01*
X221977714Y-79380261D01*
X222025333Y-79332642D01*
X222072952Y-79237404D01*
X222072952Y-79046928D01*
X222025333Y-78951690D01*
X221977714Y-78904071D01*
X221882476Y-78856452D01*
X77949142Y-112013595D02*
X77996761Y-112061214D01*
X78044380Y-112204071D01*
X78044380Y-112299309D01*
X77996761Y-112442166D01*
X77901523Y-112537404D01*
X77806285Y-112585023D01*
X77615809Y-112632642D01*
X77472952Y-112632642D01*
X77282476Y-112585023D01*
X77187238Y-112537404D01*
X77092000Y-112442166D01*
X77044380Y-112299309D01*
X77044380Y-112204071D01*
X77092000Y-112061214D01*
X77139619Y-112013595D01*
X77663428Y-111585023D02*
X77663428Y-110823119D01*
X77996761Y-110394547D02*
X78044380Y-110251690D01*
X78044380Y-110013595D01*
X77996761Y-109918357D01*
X77949142Y-109870738D01*
X77853904Y-109823119D01*
X77758666Y-109823119D01*
X77663428Y-109870738D01*
X77615809Y-109918357D01*
X77568190Y-110013595D01*
X77520571Y-110204071D01*
X77472952Y-110299309D01*
X77425333Y-110346928D01*
X77330095Y-110394547D01*
X77234857Y-110394547D01*
X77139619Y-110346928D01*
X77092000Y-110299309D01*
X77044380Y-110204071D01*
X77044380Y-109965976D01*
X77092000Y-109823119D01*
X77568190Y-109204071D02*
X78044380Y-109204071D01*
X77044380Y-109537404D02*
X77568190Y-109204071D01*
X77044380Y-108870738D01*
X78044380Y-108537404D02*
X77044380Y-108537404D01*
X78044380Y-107965976D01*
X77044380Y-107965976D01*
X77949142Y-106918357D02*
X77996761Y-106965976D01*
X78044380Y-107108833D01*
X78044380Y-107204071D01*
X77996761Y-107346928D01*
X77901523Y-107442166D01*
X77806285Y-107489785D01*
X77615809Y-107537404D01*
X77472952Y-107537404D01*
X77282476Y-107489785D01*
X77187238Y-107442166D01*
X77092000Y-107346928D01*
X77044380Y-107204071D01*
X77044380Y-107108833D01*
X77092000Y-106965976D01*
X77139619Y-106918357D01*
X80544380Y-112375500D02*
X79544380Y-112375500D01*
X82420571Y-112104071D02*
X82468190Y-111961214D01*
X82515809Y-111913595D01*
X82611047Y-111865976D01*
X82753904Y-111865976D01*
X82849142Y-111913595D01*
X82896761Y-111961214D01*
X82944380Y-112056452D01*
X82944380Y-112437404D01*
X81944380Y-112437404D01*
X81944380Y-112104071D01*
X81992000Y-112008833D01*
X82039619Y-111961214D01*
X82134857Y-111913595D01*
X82230095Y-111913595D01*
X82325333Y-111961214D01*
X82372952Y-112008833D01*
X82420571Y-112104071D01*
X82420571Y-112437404D01*
X84592000Y-111913595D02*
X84544380Y-112008833D01*
X84544380Y-112151690D01*
X84592000Y-112294547D01*
X84687238Y-112389785D01*
X84782476Y-112437404D01*
X84972952Y-112485023D01*
X85115809Y-112485023D01*
X85306285Y-112437404D01*
X85401523Y-112389785D01*
X85496761Y-112294547D01*
X85544380Y-112151690D01*
X85544380Y-112056452D01*
X85496761Y-111913595D01*
X85449142Y-111865976D01*
X85115809Y-111865976D01*
X85115809Y-112056452D01*
X88444380Y-111765976D02*
X87968190Y-112099309D01*
X88444380Y-112337404D02*
X87444380Y-112337404D01*
X87444380Y-111956452D01*
X87492000Y-111861214D01*
X87539619Y-111813595D01*
X87634857Y-111765976D01*
X87777714Y-111765976D01*
X87872952Y-111813595D01*
X87920571Y-111861214D01*
X87968190Y-111956452D01*
X87968190Y-112337404D01*
D11*
%TO.C,SEL1*%
X203262000Y-107506000D02*
X203262000Y-106176000D01*
X204592000Y-107506000D02*
X203262000Y-107506000D01*
X205862000Y-107506000D02*
X205862000Y-104846000D01*
X205862000Y-104846000D02*
X211002000Y-104846000D01*
X205862000Y-107506000D02*
X211002000Y-107506000D01*
X211002000Y-107506000D02*
X211002000Y-104846000D01*
%TO.C,SRAM-Socket1*%
X119862000Y-50485500D02*
X101962000Y-50485500D01*
X119862000Y-111685500D02*
X119862000Y-50485500D01*
X101962000Y-111685500D02*
X119862000Y-111685500D01*
X101962000Y-50485500D02*
X101962000Y-111685500D01*
X117372000Y-50545500D02*
X111912000Y-50545500D01*
X117372000Y-111625500D02*
X117372000Y-50545500D01*
X104452000Y-111625500D02*
X117372000Y-111625500D01*
X104452000Y-50545500D02*
X104452000Y-111625500D01*
X109912000Y-50545500D02*
X104452000Y-50545500D01*
X111912000Y-50545500D02*
G75*
G02*
X109912000Y-50545500I-1000000J0D01*
G01*
%TO.C,SBDT2*%
X165002000Y-65825500D02*
X165002000Y-76105500D01*
X190642000Y-65825500D02*
X165002000Y-65825500D01*
X190642000Y-76105500D02*
X190642000Y-65825500D01*
X165002000Y-76105500D02*
X190642000Y-76105500D01*
X165062000Y-68315500D02*
X165062000Y-69965500D01*
X190582000Y-68315500D02*
X165062000Y-68315500D01*
X190582000Y-73615500D02*
X190582000Y-68315500D01*
X165062000Y-73615500D02*
X190582000Y-73615500D01*
X165062000Y-71965500D02*
X165062000Y-73615500D01*
X165062000Y-69965500D02*
G75*
G02*
X165062000Y-71965500I0J-1000000D01*
G01*
%TO.C,SBDT1*%
X136102000Y-65825500D02*
X136102000Y-76105500D01*
X161742000Y-65825500D02*
X136102000Y-65825500D01*
X161742000Y-76105500D02*
X161742000Y-65825500D01*
X136102000Y-76105500D02*
X161742000Y-76105500D01*
X136162000Y-68315500D02*
X136162000Y-69965500D01*
X161682000Y-68315500D02*
X136162000Y-68315500D01*
X161682000Y-73615500D02*
X161682000Y-68315500D01*
X136162000Y-73615500D02*
X161682000Y-73615500D01*
X136162000Y-71965500D02*
X136162000Y-73615500D01*
X136162000Y-69965500D02*
G75*
G02*
X136162000Y-71965500I0J-1000000D01*
G01*
%TO.C,RAM-Decoder1*%
X206102000Y-65825500D02*
X206102000Y-76105500D01*
X231742000Y-65825500D02*
X206102000Y-65825500D01*
X231742000Y-76105500D02*
X231742000Y-65825500D01*
X206102000Y-76105500D02*
X231742000Y-76105500D01*
X206162000Y-68315500D02*
X206162000Y-69965500D01*
X231682000Y-68315500D02*
X206162000Y-68315500D01*
X231682000Y-73615500D02*
X231682000Y-68315500D01*
X206162000Y-73615500D02*
X231682000Y-73615500D01*
X206162000Y-71965500D02*
X206162000Y-73615500D01*
X206162000Y-69965500D02*
G75*
G02*
X206162000Y-71965500I0J-1000000D01*
G01*
%TO.C,DP2*%
X128592000Y-101206000D02*
X131392000Y-101206000D01*
X128592000Y-80716000D02*
X128592000Y-103916000D01*
X131392000Y-80716000D02*
X128592000Y-80716000D01*
X131392000Y-103916000D02*
X131392000Y-80716000D01*
X128592000Y-103916000D02*
X131392000Y-103916000D01*
%TO.C,DP1*%
X128592000Y-74705500D02*
X131392000Y-74705500D01*
X128592000Y-54215500D02*
X128592000Y-77415500D01*
X131392000Y-54215500D02*
X128592000Y-54215500D01*
X131392000Y-77415500D02*
X131392000Y-54215500D01*
X128592000Y-77415500D02*
X131392000Y-77415500D01*
%TO.C,AP3*%
X209762000Y-86275500D02*
X209762000Y-89075500D01*
X230252000Y-86275500D02*
X207052000Y-86275500D01*
X230252000Y-89075500D02*
X230252000Y-86275500D01*
X207052000Y-89075500D02*
X230252000Y-89075500D01*
X207052000Y-86275500D02*
X207052000Y-89075500D01*
%TO.C,AP2*%
X181762000Y-86375500D02*
X181762000Y-89175500D01*
X202252000Y-86375500D02*
X179052000Y-86375500D01*
X202252000Y-89175500D02*
X202252000Y-86375500D01*
X179052000Y-89175500D02*
X202252000Y-89175500D01*
X179052000Y-86375500D02*
X179052000Y-89175500D01*
%TO.C,AP1*%
X153862000Y-86475500D02*
X153862000Y-89275500D01*
X174352000Y-86475500D02*
X151152000Y-86475500D01*
X174352000Y-89275500D02*
X174352000Y-86475500D01*
X151152000Y-89275500D02*
X174352000Y-89275500D01*
X151152000Y-86475500D02*
X151152000Y-89275500D01*
%TO.C,ALATCH3*%
X206002000Y-91926000D02*
X206002000Y-102206000D01*
X231642000Y-91926000D02*
X206002000Y-91926000D01*
X231642000Y-102206000D02*
X231642000Y-91926000D01*
X206002000Y-102206000D02*
X231642000Y-102206000D01*
X206062000Y-94416000D02*
X206062000Y-96066000D01*
X231582000Y-94416000D02*
X206062000Y-94416000D01*
X231582000Y-99716000D02*
X231582000Y-94416000D01*
X206062000Y-99716000D02*
X231582000Y-99716000D01*
X206062000Y-98066000D02*
X206062000Y-99716000D01*
X206062000Y-96066000D02*
G75*
G02*
X206062000Y-98066000I0J-1000000D01*
G01*
%TO.C,ALATCH2*%
X177902000Y-92026000D02*
X177902000Y-102306000D01*
X203542000Y-92026000D02*
X177902000Y-92026000D01*
X203542000Y-102306000D02*
X203542000Y-92026000D01*
X177902000Y-102306000D02*
X203542000Y-102306000D01*
X177962000Y-94516000D02*
X177962000Y-96166000D01*
X203482000Y-94516000D02*
X177962000Y-94516000D01*
X203482000Y-99816000D02*
X203482000Y-94516000D01*
X177962000Y-99816000D02*
X203482000Y-99816000D01*
X177962000Y-98166000D02*
X177962000Y-99816000D01*
X177962000Y-96166000D02*
G75*
G02*
X177962000Y-98166000I0J-1000000D01*
G01*
%TO.C,ALATCH1*%
X149802000Y-91826000D02*
X149802000Y-102106000D01*
X175442000Y-91826000D02*
X149802000Y-91826000D01*
X175442000Y-102106000D02*
X175442000Y-91826000D01*
X149802000Y-102106000D02*
X175442000Y-102106000D01*
X149862000Y-94316000D02*
X149862000Y-95966000D01*
X175382000Y-94316000D02*
X149862000Y-94316000D01*
X175382000Y-99616000D02*
X175382000Y-94316000D01*
X149862000Y-99616000D02*
X175382000Y-99616000D01*
X149862000Y-97966000D02*
X149862000Y-99616000D01*
X149862000Y-95966000D02*
G75*
G02*
X149862000Y-97966000I0J-1000000D01*
G01*
%TO.C,JV-2*%
X84792000Y-86075500D02*
X67792000Y-86075500D01*
X84792000Y-104075500D02*
X84792000Y-86075500D01*
X67792000Y-104075500D02*
X84792000Y-104075500D01*
X66792000Y-104075500D02*
X67792000Y-104075500D01*
X66792000Y-105575500D02*
X66792000Y-104075500D01*
X65792000Y-105575500D02*
X66792000Y-105575500D01*
X67792000Y-84575500D02*
X67792000Y-86075500D01*
X66792000Y-84575500D02*
X67792000Y-84575500D01*
X66792000Y-86075500D02*
X66792000Y-84575500D01*
X65792000Y-86075500D02*
X66792000Y-86075500D01*
X65792000Y-105575500D02*
X65792000Y-86075500D01*
%TO.C,JV-1*%
X89022000Y-113946000D02*
X89022000Y-115276000D01*
X87692000Y-113946000D02*
X89022000Y-113946000D01*
X86422000Y-113946000D02*
X86422000Y-116606000D01*
X86422000Y-116606000D02*
X76202000Y-116606000D01*
X86422000Y-113946000D02*
X76202000Y-113946000D01*
X76202000Y-113946000D02*
X76202000Y-116606000D01*
%TO.C,CONN2*%
X228262000Y-53305500D02*
X143261000Y-53305500D01*
X228262000Y-50305500D02*
X228262000Y-53305500D01*
X227262000Y-50305500D02*
X228262000Y-50305500D01*
X227262000Y-47305500D02*
X227262000Y-50305500D01*
X144261000Y-47305500D02*
X227262000Y-47305500D01*
X144261000Y-50305500D02*
X144261000Y-47305500D01*
X143261000Y-50305500D02*
X144261000Y-50305500D01*
X143261000Y-53305500D02*
X143261000Y-50305500D01*
X146692000Y-55335500D02*
X146392000Y-54655500D01*
X146092000Y-55335500D02*
X146692000Y-55335500D01*
X146392000Y-54655500D02*
X146092000Y-55335500D01*
X233372000Y-54465500D02*
X138152000Y-54465500D01*
X233372000Y-46145500D02*
X233372000Y-54465500D01*
X138152000Y-46145500D02*
X233372000Y-46145500D01*
X138152000Y-54465500D02*
X138152000Y-46145500D01*
%TO.C,CONN1*%
X212407000Y-112736000D02*
X211807000Y-113036000D01*
X212407000Y-113336000D02*
X212407000Y-112736000D01*
X211807000Y-113036000D02*
X212407000Y-113336000D01*
X131102000Y-113776000D02*
X129602000Y-113776000D01*
X133642000Y-113776000D02*
X132841000Y-113776000D01*
X136182000Y-113776000D02*
X135381000Y-113776000D01*
X138722000Y-113776000D02*
X137921000Y-113776000D01*
X141262000Y-113776000D02*
X140461000Y-113776000D01*
X143802000Y-113776000D02*
X143001000Y-113776000D01*
X146342000Y-113776000D02*
X145541000Y-113776000D01*
X148882000Y-113776000D02*
X148081000Y-113776000D01*
X151422000Y-113776000D02*
X150621000Y-113776000D01*
X153962000Y-113776000D02*
X153161000Y-113776000D01*
X156502000Y-113776000D02*
X155701000Y-113776000D01*
X159042000Y-113776000D02*
X158241000Y-113776000D01*
X161582000Y-113776000D02*
X160781000Y-113776000D01*
X164122000Y-113776000D02*
X163321000Y-113776000D01*
X166662000Y-113776000D02*
X165861000Y-113776000D01*
X169202000Y-113776000D02*
X168401000Y-113776000D01*
X171742000Y-113776000D02*
X170941000Y-113776000D01*
X174282000Y-113776000D02*
X173481000Y-113776000D01*
X176822000Y-113776000D02*
X176021000Y-113776000D01*
X179362000Y-113776000D02*
X178561000Y-113776000D01*
X181902000Y-113776000D02*
X181101000Y-113776000D01*
X184442000Y-113776000D02*
X183641000Y-113776000D01*
X186982000Y-113776000D02*
X186181000Y-113776000D01*
X189522000Y-113776000D02*
X188721000Y-113776000D01*
X192062000Y-113776000D02*
X191261000Y-113776000D01*
X194602000Y-113776000D02*
X193801000Y-113776000D01*
X197142000Y-113776000D02*
X196341000Y-113776000D01*
X199682000Y-113776000D02*
X198881000Y-113776000D01*
X202222000Y-113776000D02*
X201421000Y-113776000D01*
X204762000Y-113776000D02*
X203961000Y-113776000D01*
X207302000Y-113776000D02*
X206501000Y-113776000D01*
X209617000Y-113776000D02*
X209041000Y-113776000D01*
X213083000Y-113776000D02*
X211807000Y-113776000D01*
X129602000Y-112776000D02*
X129602000Y-113776000D01*
X124082000Y-112776000D02*
X129602000Y-112776000D01*
X124082000Y-118336000D02*
X124082000Y-112776000D01*
X213082000Y-112776000D02*
X213082000Y-113776000D01*
X218602000Y-112776000D02*
X213082000Y-112776000D01*
X218602000Y-118336000D02*
X218602000Y-112776000D01*
%TO.C,SEL1*%
D10*
X205472952Y-103780761D02*
X205615809Y-103828380D01*
X205853904Y-103828380D01*
X205949142Y-103780761D01*
X205996761Y-103733142D01*
X206044380Y-103637904D01*
X206044380Y-103542666D01*
X205996761Y-103447428D01*
X205949142Y-103399809D01*
X205853904Y-103352190D01*
X205663428Y-103304571D01*
X205568190Y-103256952D01*
X205520571Y-103209333D01*
X205472952Y-103114095D01*
X205472952Y-103018857D01*
X205520571Y-102923619D01*
X205568190Y-102876000D01*
X205663428Y-102828380D01*
X205901523Y-102828380D01*
X206044380Y-102876000D01*
X206472952Y-103304571D02*
X206806285Y-103304571D01*
X206949142Y-103828380D02*
X206472952Y-103828380D01*
X206472952Y-102828380D01*
X206949142Y-102828380D01*
X207853904Y-103828380D02*
X207377714Y-103828380D01*
X207377714Y-102828380D01*
X208711047Y-103828380D02*
X208139619Y-103828380D01*
X208425333Y-103828380D02*
X208425333Y-102828380D01*
X208330095Y-102971238D01*
X208234857Y-103066476D01*
X208139619Y-103114095D01*
%TO.C,SRAM-Socket1*%
X105554857Y-49950261D02*
X105697714Y-49997880D01*
X105935809Y-49997880D01*
X106031047Y-49950261D01*
X106078666Y-49902642D01*
X106126285Y-49807404D01*
X106126285Y-49712166D01*
X106078666Y-49616928D01*
X106031047Y-49569309D01*
X105935809Y-49521690D01*
X105745333Y-49474071D01*
X105650095Y-49426452D01*
X105602476Y-49378833D01*
X105554857Y-49283595D01*
X105554857Y-49188357D01*
X105602476Y-49093119D01*
X105650095Y-49045500D01*
X105745333Y-48997880D01*
X105983428Y-48997880D01*
X106126285Y-49045500D01*
X107126285Y-49997880D02*
X106792952Y-49521690D01*
X106554857Y-49997880D02*
X106554857Y-48997880D01*
X106935809Y-48997880D01*
X107031047Y-49045500D01*
X107078666Y-49093119D01*
X107126285Y-49188357D01*
X107126285Y-49331214D01*
X107078666Y-49426452D01*
X107031047Y-49474071D01*
X106935809Y-49521690D01*
X106554857Y-49521690D01*
X107507238Y-49712166D02*
X107983428Y-49712166D01*
X107412000Y-49997880D02*
X107745333Y-48997880D01*
X108078666Y-49997880D01*
X108412000Y-49997880D02*
X108412000Y-48997880D01*
X108745333Y-49712166D01*
X109078666Y-48997880D01*
X109078666Y-49997880D01*
X109554857Y-49616928D02*
X110316761Y-49616928D01*
X110745333Y-49950261D02*
X110888190Y-49997880D01*
X111126285Y-49997880D01*
X111221523Y-49950261D01*
X111269142Y-49902642D01*
X111316761Y-49807404D01*
X111316761Y-49712166D01*
X111269142Y-49616928D01*
X111221523Y-49569309D01*
X111126285Y-49521690D01*
X110935809Y-49474071D01*
X110840571Y-49426452D01*
X110792952Y-49378833D01*
X110745333Y-49283595D01*
X110745333Y-49188357D01*
X110792952Y-49093119D01*
X110840571Y-49045500D01*
X110935809Y-48997880D01*
X111173904Y-48997880D01*
X111316761Y-49045500D01*
X111888190Y-49997880D02*
X111792952Y-49950261D01*
X111745333Y-49902642D01*
X111697714Y-49807404D01*
X111697714Y-49521690D01*
X111745333Y-49426452D01*
X111792952Y-49378833D01*
X111888190Y-49331214D01*
X112031047Y-49331214D01*
X112126285Y-49378833D01*
X112173904Y-49426452D01*
X112221523Y-49521690D01*
X112221523Y-49807404D01*
X112173904Y-49902642D01*
X112126285Y-49950261D01*
X112031047Y-49997880D01*
X111888190Y-49997880D01*
X113078666Y-49950261D02*
X112983428Y-49997880D01*
X112792952Y-49997880D01*
X112697714Y-49950261D01*
X112650095Y-49902642D01*
X112602476Y-49807404D01*
X112602476Y-49521690D01*
X112650095Y-49426452D01*
X112697714Y-49378833D01*
X112792952Y-49331214D01*
X112983428Y-49331214D01*
X113078666Y-49378833D01*
X113507238Y-49997880D02*
X113507238Y-48997880D01*
X113602476Y-49616928D02*
X113888190Y-49997880D01*
X113888190Y-49331214D02*
X113507238Y-49712166D01*
X114697714Y-49950261D02*
X114602476Y-49997880D01*
X114412000Y-49997880D01*
X114316761Y-49950261D01*
X114269142Y-49855023D01*
X114269142Y-49474071D01*
X114316761Y-49378833D01*
X114412000Y-49331214D01*
X114602476Y-49331214D01*
X114697714Y-49378833D01*
X114745333Y-49474071D01*
X114745333Y-49569309D01*
X114269142Y-49664547D01*
X115031047Y-49331214D02*
X115412000Y-49331214D01*
X115173904Y-48997880D02*
X115173904Y-49855023D01*
X115221523Y-49950261D01*
X115316761Y-49997880D01*
X115412000Y-49997880D01*
X116269142Y-49997880D02*
X115697714Y-49997880D01*
X115983428Y-49997880D02*
X115983428Y-48997880D01*
X115888190Y-49140738D01*
X115792952Y-49235976D01*
X115697714Y-49283595D01*
%TO.C,SBDT2*%
X164296761Y-72818357D02*
X164344380Y-72675500D01*
X164344380Y-72437404D01*
X164296761Y-72342166D01*
X164249142Y-72294547D01*
X164153904Y-72246928D01*
X164058666Y-72246928D01*
X163963428Y-72294547D01*
X163915809Y-72342166D01*
X163868190Y-72437404D01*
X163820571Y-72627880D01*
X163772952Y-72723119D01*
X163725333Y-72770738D01*
X163630095Y-72818357D01*
X163534857Y-72818357D01*
X163439619Y-72770738D01*
X163392000Y-72723119D01*
X163344380Y-72627880D01*
X163344380Y-72389785D01*
X163392000Y-72246928D01*
X163820571Y-71485023D02*
X163868190Y-71342166D01*
X163915809Y-71294547D01*
X164011047Y-71246928D01*
X164153904Y-71246928D01*
X164249142Y-71294547D01*
X164296761Y-71342166D01*
X164344380Y-71437404D01*
X164344380Y-71818357D01*
X163344380Y-71818357D01*
X163344380Y-71485023D01*
X163392000Y-71389785D01*
X163439619Y-71342166D01*
X163534857Y-71294547D01*
X163630095Y-71294547D01*
X163725333Y-71342166D01*
X163772952Y-71389785D01*
X163820571Y-71485023D01*
X163820571Y-71818357D01*
X164344380Y-70818357D02*
X163344380Y-70818357D01*
X163344380Y-70580261D01*
X163392000Y-70437404D01*
X163487238Y-70342166D01*
X163582476Y-70294547D01*
X163772952Y-70246928D01*
X163915809Y-70246928D01*
X164106285Y-70294547D01*
X164201523Y-70342166D01*
X164296761Y-70437404D01*
X164344380Y-70580261D01*
X164344380Y-70818357D01*
X163344380Y-69961214D02*
X163344380Y-69389785D01*
X164344380Y-69675500D02*
X163344380Y-69675500D01*
X163439619Y-69104071D02*
X163392000Y-69056452D01*
X163344380Y-68961214D01*
X163344380Y-68723119D01*
X163392000Y-68627880D01*
X163439619Y-68580261D01*
X163534857Y-68532642D01*
X163630095Y-68532642D01*
X163772952Y-68580261D01*
X164344380Y-69151690D01*
X164344380Y-68532642D01*
%TO.C,SBDT1*%
X135566761Y-73108357D02*
X135614380Y-72965500D01*
X135614380Y-72727404D01*
X135566761Y-72632166D01*
X135519142Y-72584547D01*
X135423904Y-72536928D01*
X135328666Y-72536928D01*
X135233428Y-72584547D01*
X135185809Y-72632166D01*
X135138190Y-72727404D01*
X135090571Y-72917880D01*
X135042952Y-73013119D01*
X134995333Y-73060738D01*
X134900095Y-73108357D01*
X134804857Y-73108357D01*
X134709619Y-73060738D01*
X134662000Y-73013119D01*
X134614380Y-72917880D01*
X134614380Y-72679785D01*
X134662000Y-72536928D01*
X135090571Y-71775023D02*
X135138190Y-71632166D01*
X135185809Y-71584547D01*
X135281047Y-71536928D01*
X135423904Y-71536928D01*
X135519142Y-71584547D01*
X135566761Y-71632166D01*
X135614380Y-71727404D01*
X135614380Y-72108357D01*
X134614380Y-72108357D01*
X134614380Y-71775023D01*
X134662000Y-71679785D01*
X134709619Y-71632166D01*
X134804857Y-71584547D01*
X134900095Y-71584547D01*
X134995333Y-71632166D01*
X135042952Y-71679785D01*
X135090571Y-71775023D01*
X135090571Y-72108357D01*
X135614380Y-71108357D02*
X134614380Y-71108357D01*
X134614380Y-70870261D01*
X134662000Y-70727404D01*
X134757238Y-70632166D01*
X134852476Y-70584547D01*
X135042952Y-70536928D01*
X135185809Y-70536928D01*
X135376285Y-70584547D01*
X135471523Y-70632166D01*
X135566761Y-70727404D01*
X135614380Y-70870261D01*
X135614380Y-71108357D01*
X134614380Y-70251214D02*
X134614380Y-69679785D01*
X135614380Y-69965500D02*
X134614380Y-69965500D01*
X135614380Y-68822642D02*
X135614380Y-69394071D01*
X135614380Y-69108357D02*
X134614380Y-69108357D01*
X134757238Y-69203595D01*
X134852476Y-69298833D01*
X134900095Y-69394071D01*
%TO.C,RAM-Decoder1*%
X205614380Y-75751214D02*
X205138190Y-76084547D01*
X205614380Y-76322642D02*
X204614380Y-76322642D01*
X204614380Y-75941690D01*
X204662000Y-75846452D01*
X204709619Y-75798833D01*
X204804857Y-75751214D01*
X204947714Y-75751214D01*
X205042952Y-75798833D01*
X205090571Y-75846452D01*
X205138190Y-75941690D01*
X205138190Y-76322642D01*
X205328666Y-75370261D02*
X205328666Y-74894071D01*
X205614380Y-75465500D02*
X204614380Y-75132166D01*
X205614380Y-74798833D01*
X205614380Y-74465500D02*
X204614380Y-74465500D01*
X205328666Y-74132166D01*
X204614380Y-73798833D01*
X205614380Y-73798833D01*
X205233428Y-73322642D02*
X205233428Y-72560738D01*
X205614380Y-72084547D02*
X204614380Y-72084547D01*
X204614380Y-71846452D01*
X204662000Y-71703595D01*
X204757238Y-71608357D01*
X204852476Y-71560738D01*
X205042952Y-71513119D01*
X205185809Y-71513119D01*
X205376285Y-71560738D01*
X205471523Y-71608357D01*
X205566761Y-71703595D01*
X205614380Y-71846452D01*
X205614380Y-72084547D01*
X205566761Y-70703595D02*
X205614380Y-70798833D01*
X205614380Y-70989309D01*
X205566761Y-71084547D01*
X205471523Y-71132166D01*
X205090571Y-71132166D01*
X204995333Y-71084547D01*
X204947714Y-70989309D01*
X204947714Y-70798833D01*
X204995333Y-70703595D01*
X205090571Y-70655976D01*
X205185809Y-70655976D01*
X205281047Y-71132166D01*
X205566761Y-69798833D02*
X205614380Y-69894071D01*
X205614380Y-70084547D01*
X205566761Y-70179785D01*
X205519142Y-70227404D01*
X205423904Y-70275023D01*
X205138190Y-70275023D01*
X205042952Y-70227404D01*
X204995333Y-70179785D01*
X204947714Y-70084547D01*
X204947714Y-69894071D01*
X204995333Y-69798833D01*
X205614380Y-69227404D02*
X205566761Y-69322642D01*
X205519142Y-69370261D01*
X205423904Y-69417880D01*
X205138190Y-69417880D01*
X205042952Y-69370261D01*
X204995333Y-69322642D01*
X204947714Y-69227404D01*
X204947714Y-69084547D01*
X204995333Y-68989309D01*
X205042952Y-68941690D01*
X205138190Y-68894071D01*
X205423904Y-68894071D01*
X205519142Y-68941690D01*
X205566761Y-68989309D01*
X205614380Y-69084547D01*
X205614380Y-69227404D01*
X205614380Y-68036928D02*
X204614380Y-68036928D01*
X205566761Y-68036928D02*
X205614380Y-68132166D01*
X205614380Y-68322642D01*
X205566761Y-68417880D01*
X205519142Y-68465500D01*
X205423904Y-68513119D01*
X205138190Y-68513119D01*
X205042952Y-68465500D01*
X204995333Y-68417880D01*
X204947714Y-68322642D01*
X204947714Y-68132166D01*
X204995333Y-68036928D01*
X205566761Y-67179785D02*
X205614380Y-67275023D01*
X205614380Y-67465500D01*
X205566761Y-67560738D01*
X205471523Y-67608357D01*
X205090571Y-67608357D01*
X204995333Y-67560738D01*
X204947714Y-67465500D01*
X204947714Y-67275023D01*
X204995333Y-67179785D01*
X205090571Y-67132166D01*
X205185809Y-67132166D01*
X205281047Y-67608357D01*
X205614380Y-66703595D02*
X204947714Y-66703595D01*
X205138190Y-66703595D02*
X205042952Y-66655976D01*
X204995333Y-66608357D01*
X204947714Y-66513119D01*
X204947714Y-66417880D01*
X205614380Y-65560738D02*
X205614380Y-66132166D01*
X205614380Y-65846452D02*
X204614380Y-65846452D01*
X204757238Y-65941690D01*
X204852476Y-66036928D01*
X204900095Y-66132166D01*
%TO.C,DP2*%
X128044380Y-92284095D02*
X127044380Y-92284095D01*
X127044380Y-92046000D01*
X127092000Y-91903142D01*
X127187238Y-91807904D01*
X127282476Y-91760285D01*
X127472952Y-91712666D01*
X127615809Y-91712666D01*
X127806285Y-91760285D01*
X127901523Y-91807904D01*
X127996761Y-91903142D01*
X128044380Y-92046000D01*
X128044380Y-92284095D01*
X128044380Y-91284095D02*
X127044380Y-91284095D01*
X127044380Y-90903142D01*
X127092000Y-90807904D01*
X127139619Y-90760285D01*
X127234857Y-90712666D01*
X127377714Y-90712666D01*
X127472952Y-90760285D01*
X127520571Y-90807904D01*
X127568190Y-90903142D01*
X127568190Y-91284095D01*
X127139619Y-90331714D02*
X127092000Y-90284095D01*
X127044380Y-90188857D01*
X127044380Y-89950761D01*
X127092000Y-89855523D01*
X127139619Y-89807904D01*
X127234857Y-89760285D01*
X127330095Y-89760285D01*
X127472952Y-89807904D01*
X128044380Y-90379333D01*
X128044380Y-89760285D01*
%TO.C,DP1*%
X128044380Y-65783595D02*
X127044380Y-65783595D01*
X127044380Y-65545500D01*
X127092000Y-65402642D01*
X127187238Y-65307404D01*
X127282476Y-65259785D01*
X127472952Y-65212166D01*
X127615809Y-65212166D01*
X127806285Y-65259785D01*
X127901523Y-65307404D01*
X127996761Y-65402642D01*
X128044380Y-65545500D01*
X128044380Y-65783595D01*
X128044380Y-64783595D02*
X127044380Y-64783595D01*
X127044380Y-64402642D01*
X127092000Y-64307404D01*
X127139619Y-64259785D01*
X127234857Y-64212166D01*
X127377714Y-64212166D01*
X127472952Y-64259785D01*
X127520571Y-64307404D01*
X127568190Y-64402642D01*
X127568190Y-64783595D01*
X128044380Y-63259785D02*
X128044380Y-63831214D01*
X128044380Y-63545500D02*
X127044380Y-63545500D01*
X127187238Y-63640738D01*
X127282476Y-63735976D01*
X127330095Y-63831214D01*
%TO.C,AP3*%
X218707714Y-85442166D02*
X219183904Y-85442166D01*
X218612476Y-85727880D02*
X218945809Y-84727880D01*
X219279142Y-85727880D01*
X219612476Y-85727880D02*
X219612476Y-84727880D01*
X219993428Y-84727880D01*
X220088666Y-84775500D01*
X220136285Y-84823119D01*
X220183904Y-84918357D01*
X220183904Y-85061214D01*
X220136285Y-85156452D01*
X220088666Y-85204071D01*
X219993428Y-85251690D01*
X219612476Y-85251690D01*
X220517238Y-84727880D02*
X221136285Y-84727880D01*
X220802952Y-85108833D01*
X220945809Y-85108833D01*
X221041047Y-85156452D01*
X221088666Y-85204071D01*
X221136285Y-85299309D01*
X221136285Y-85537404D01*
X221088666Y-85632642D01*
X221041047Y-85680261D01*
X220945809Y-85727880D01*
X220660095Y-85727880D01*
X220564857Y-85680261D01*
X220517238Y-85632642D01*
%TO.C,AP2*%
X190707714Y-85542166D02*
X191183904Y-85542166D01*
X190612476Y-85827880D02*
X190945809Y-84827880D01*
X191279142Y-85827880D01*
X191612476Y-85827880D02*
X191612476Y-84827880D01*
X191993428Y-84827880D01*
X192088666Y-84875500D01*
X192136285Y-84923119D01*
X192183904Y-85018357D01*
X192183904Y-85161214D01*
X192136285Y-85256452D01*
X192088666Y-85304071D01*
X191993428Y-85351690D01*
X191612476Y-85351690D01*
X192564857Y-84923119D02*
X192612476Y-84875500D01*
X192707714Y-84827880D01*
X192945809Y-84827880D01*
X193041047Y-84875500D01*
X193088666Y-84923119D01*
X193136285Y-85018357D01*
X193136285Y-85113595D01*
X193088666Y-85256452D01*
X192517238Y-85827880D01*
X193136285Y-85827880D01*
%TO.C,AP1*%
X162807714Y-85642166D02*
X163283904Y-85642166D01*
X162712476Y-85927880D02*
X163045809Y-84927880D01*
X163379142Y-85927880D01*
X163712476Y-85927880D02*
X163712476Y-84927880D01*
X164093428Y-84927880D01*
X164188666Y-84975500D01*
X164236285Y-85023119D01*
X164283904Y-85118357D01*
X164283904Y-85261214D01*
X164236285Y-85356452D01*
X164188666Y-85404071D01*
X164093428Y-85451690D01*
X163712476Y-85451690D01*
X165236285Y-85927880D02*
X164664857Y-85927880D01*
X164950571Y-85927880D02*
X164950571Y-84927880D01*
X164855333Y-85070738D01*
X164760095Y-85165976D01*
X164664857Y-85213595D01*
%TO.C,ALATCH3*%
X205228666Y-100018380D02*
X205228666Y-99542190D01*
X205514380Y-100113619D02*
X204514380Y-99780285D01*
X205514380Y-99446952D01*
X205514380Y-98637428D02*
X205514380Y-99113619D01*
X204514380Y-99113619D01*
X205228666Y-98351714D02*
X205228666Y-97875523D01*
X205514380Y-98446952D02*
X204514380Y-98113619D01*
X205514380Y-97780285D01*
X204514380Y-97589809D02*
X204514380Y-97018380D01*
X205514380Y-97304095D02*
X204514380Y-97304095D01*
X205419142Y-96113619D02*
X205466761Y-96161238D01*
X205514380Y-96304095D01*
X205514380Y-96399333D01*
X205466761Y-96542190D01*
X205371523Y-96637428D01*
X205276285Y-96685047D01*
X205085809Y-96732666D01*
X204942952Y-96732666D01*
X204752476Y-96685047D01*
X204657238Y-96637428D01*
X204562000Y-96542190D01*
X204514380Y-96399333D01*
X204514380Y-96304095D01*
X204562000Y-96161238D01*
X204609619Y-96113619D01*
X205514380Y-95685047D02*
X204514380Y-95685047D01*
X204990571Y-95685047D02*
X204990571Y-95113619D01*
X205514380Y-95113619D02*
X204514380Y-95113619D01*
X204514380Y-94732666D02*
X204514380Y-94113619D01*
X204895333Y-94446952D01*
X204895333Y-94304095D01*
X204942952Y-94208857D01*
X204990571Y-94161238D01*
X205085809Y-94113619D01*
X205323904Y-94113619D01*
X205419142Y-94161238D01*
X205466761Y-94208857D01*
X205514380Y-94304095D01*
X205514380Y-94589809D01*
X205466761Y-94685047D01*
X205419142Y-94732666D01*
%TO.C,ALATCH2*%
X177128666Y-100118380D02*
X177128666Y-99642190D01*
X177414380Y-100213619D02*
X176414380Y-99880285D01*
X177414380Y-99546952D01*
X177414380Y-98737428D02*
X177414380Y-99213619D01*
X176414380Y-99213619D01*
X177128666Y-98451714D02*
X177128666Y-97975523D01*
X177414380Y-98546952D02*
X176414380Y-98213619D01*
X177414380Y-97880285D01*
X176414380Y-97689809D02*
X176414380Y-97118380D01*
X177414380Y-97404095D02*
X176414380Y-97404095D01*
X177319142Y-96213619D02*
X177366761Y-96261238D01*
X177414380Y-96404095D01*
X177414380Y-96499333D01*
X177366761Y-96642190D01*
X177271523Y-96737428D01*
X177176285Y-96785047D01*
X176985809Y-96832666D01*
X176842952Y-96832666D01*
X176652476Y-96785047D01*
X176557238Y-96737428D01*
X176462000Y-96642190D01*
X176414380Y-96499333D01*
X176414380Y-96404095D01*
X176462000Y-96261238D01*
X176509619Y-96213619D01*
X177414380Y-95785047D02*
X176414380Y-95785047D01*
X176890571Y-95785047D02*
X176890571Y-95213619D01*
X177414380Y-95213619D02*
X176414380Y-95213619D01*
X176509619Y-94785047D02*
X176462000Y-94737428D01*
X176414380Y-94642190D01*
X176414380Y-94404095D01*
X176462000Y-94308857D01*
X176509619Y-94261238D01*
X176604857Y-94213619D01*
X176700095Y-94213619D01*
X176842952Y-94261238D01*
X177414380Y-94832666D01*
X177414380Y-94213619D01*
%TO.C,ALATCH1*%
X149028666Y-99918380D02*
X149028666Y-99442190D01*
X149314380Y-100013619D02*
X148314380Y-99680285D01*
X149314380Y-99346952D01*
X149314380Y-98537428D02*
X149314380Y-99013619D01*
X148314380Y-99013619D01*
X149028666Y-98251714D02*
X149028666Y-97775523D01*
X149314380Y-98346952D02*
X148314380Y-98013619D01*
X149314380Y-97680285D01*
X148314380Y-97489809D02*
X148314380Y-96918380D01*
X149314380Y-97204095D02*
X148314380Y-97204095D01*
X149219142Y-96013619D02*
X149266761Y-96061238D01*
X149314380Y-96204095D01*
X149314380Y-96299333D01*
X149266761Y-96442190D01*
X149171523Y-96537428D01*
X149076285Y-96585047D01*
X148885809Y-96632666D01*
X148742952Y-96632666D01*
X148552476Y-96585047D01*
X148457238Y-96537428D01*
X148362000Y-96442190D01*
X148314380Y-96299333D01*
X148314380Y-96204095D01*
X148362000Y-96061238D01*
X148409619Y-96013619D01*
X149314380Y-95585047D02*
X148314380Y-95585047D01*
X148790571Y-95585047D02*
X148790571Y-95013619D01*
X149314380Y-95013619D02*
X148314380Y-95013619D01*
X149314380Y-94013619D02*
X149314380Y-94585047D01*
X149314380Y-94299333D02*
X148314380Y-94299333D01*
X148457238Y-94394571D01*
X148552476Y-94489809D01*
X148600095Y-94585047D01*
%TO.C,JV-2*%
X72711047Y-91827880D02*
X72711047Y-92542166D01*
X72663428Y-92685023D01*
X72568190Y-92780261D01*
X72425333Y-92827880D01*
X72330095Y-92827880D01*
X73044380Y-91827880D02*
X73377714Y-92827880D01*
X73711047Y-91827880D01*
X74044380Y-92446928D02*
X74806285Y-92446928D01*
X75234857Y-91923119D02*
X75282476Y-91875500D01*
X75377714Y-91827880D01*
X75615809Y-91827880D01*
X75711047Y-91875500D01*
X75758666Y-91923119D01*
X75806285Y-92018357D01*
X75806285Y-92113595D01*
X75758666Y-92256452D01*
X75187238Y-92827880D01*
X75806285Y-92827880D01*
%TO.C,JV-1*%
X91111047Y-114628380D02*
X91111047Y-115342666D01*
X91063428Y-115485523D01*
X90968190Y-115580761D01*
X90825333Y-115628380D01*
X90730095Y-115628380D01*
X91444380Y-114628380D02*
X91777714Y-115628380D01*
X92111047Y-114628380D01*
X92444380Y-115247428D02*
X93206285Y-115247428D01*
X94206285Y-115628380D02*
X93634857Y-115628380D01*
X93920571Y-115628380D02*
X93920571Y-114628380D01*
X93825333Y-114771238D01*
X93730095Y-114866476D01*
X93634857Y-114914095D01*
%TO.C,CONN2*%
X137619142Y-52043595D02*
X137666761Y-52091214D01*
X137714380Y-52234071D01*
X137714380Y-52329309D01*
X137666761Y-52472166D01*
X137571523Y-52567404D01*
X137476285Y-52615023D01*
X137285809Y-52662642D01*
X137142952Y-52662642D01*
X136952476Y-52615023D01*
X136857238Y-52567404D01*
X136762000Y-52472166D01*
X136714380Y-52329309D01*
X136714380Y-52234071D01*
X136762000Y-52091214D01*
X136809619Y-52043595D01*
X136714380Y-51424547D02*
X136714380Y-51234071D01*
X136762000Y-51138833D01*
X136857238Y-51043595D01*
X137047714Y-50995976D01*
X137381047Y-50995976D01*
X137571523Y-51043595D01*
X137666761Y-51138833D01*
X137714380Y-51234071D01*
X137714380Y-51424547D01*
X137666761Y-51519785D01*
X137571523Y-51615023D01*
X137381047Y-51662642D01*
X137047714Y-51662642D01*
X136857238Y-51615023D01*
X136762000Y-51519785D01*
X136714380Y-51424547D01*
X137714380Y-50567404D02*
X136714380Y-50567404D01*
X137714380Y-49995976D01*
X136714380Y-49995976D01*
X137714380Y-49519785D02*
X136714380Y-49519785D01*
X137714380Y-48948357D01*
X136714380Y-48948357D01*
X136809619Y-48519785D02*
X136762000Y-48472166D01*
X136714380Y-48376928D01*
X136714380Y-48138833D01*
X136762000Y-48043595D01*
X136809619Y-47995976D01*
X136904857Y-47948357D01*
X137000095Y-47948357D01*
X137142952Y-47995976D01*
X137714380Y-48567404D01*
X137714380Y-47948357D01*
%TO.C,CONN1*%
X214053904Y-112393142D02*
X214006285Y-112440761D01*
X213863428Y-112488380D01*
X213768190Y-112488380D01*
X213625333Y-112440761D01*
X213530095Y-112345523D01*
X213482476Y-112250285D01*
X213434857Y-112059809D01*
X213434857Y-111916952D01*
X213482476Y-111726476D01*
X213530095Y-111631238D01*
X213625333Y-111536000D01*
X213768190Y-111488380D01*
X213863428Y-111488380D01*
X214006285Y-111536000D01*
X214053904Y-111583619D01*
X214672952Y-111488380D02*
X214863428Y-111488380D01*
X214958666Y-111536000D01*
X215053904Y-111631238D01*
X215101523Y-111821714D01*
X215101523Y-112155047D01*
X215053904Y-112345523D01*
X214958666Y-112440761D01*
X214863428Y-112488380D01*
X214672952Y-112488380D01*
X214577714Y-112440761D01*
X214482476Y-112345523D01*
X214434857Y-112155047D01*
X214434857Y-111821714D01*
X214482476Y-111631238D01*
X214577714Y-111536000D01*
X214672952Y-111488380D01*
X215530095Y-112488380D02*
X215530095Y-111488380D01*
X216101523Y-112488380D01*
X216101523Y-111488380D01*
X216577714Y-112488380D02*
X216577714Y-111488380D01*
X217149142Y-112488380D01*
X217149142Y-111488380D01*
X218149142Y-112488380D02*
X217577714Y-112488380D01*
X217863428Y-112488380D02*
X217863428Y-111488380D01*
X217768190Y-111631238D01*
X217672952Y-111726476D01*
X217577714Y-111774095D01*
%TD*%
M02*
