%TF.GenerationSoftware,KiCad,Pcbnew,(5.1.7)-1*%
%TF.CreationDate,2021-09-17T17:18:02+01:00*%
%TF.ProjectId,Apricot-Expansion-RAM,41707269-636f-4742-9d45-7870616e7369,rev?*%
%TF.SameCoordinates,Original*%
%TF.FileFunction,Paste,Bot*%
%TF.FilePolarity,Positive*%
%FSLAX46Y46*%
G04 Gerber Fmt 4.6, Leading zero omitted, Abs format (unit mm)*
G04 Created by KiCad (PCBNEW (5.1.7)-1) date 2021-09-17 17:18:02*
%MOMM*%
%LPD*%
G01*
G04 APERTURE LIST*
%ADD10R,1.100000X0.250000*%
G04 APERTURE END LIST*
%TO.C,C11*%
G36*
G01*
X208842000Y-97550500D02*
X208842000Y-96600500D01*
G75*
G02*
X209092000Y-96350500I250000J0D01*
G01*
X209592000Y-96350500D01*
G75*
G02*
X209842000Y-96600500I0J-250000D01*
G01*
X209842000Y-97550500D01*
G75*
G02*
X209592000Y-97800500I-250000J0D01*
G01*
X209092000Y-97800500D01*
G75*
G02*
X208842000Y-97550500I0J250000D01*
G01*
G37*
G36*
G01*
X206942000Y-97550500D02*
X206942000Y-96600500D01*
G75*
G02*
X207192000Y-96350500I250000J0D01*
G01*
X207692000Y-96350500D01*
G75*
G02*
X207942000Y-96600500I0J-250000D01*
G01*
X207942000Y-97550500D01*
G75*
G02*
X207692000Y-97800500I-250000J0D01*
G01*
X207192000Y-97800500D01*
G75*
G02*
X206942000Y-97550500I0J250000D01*
G01*
G37*
%TD*%
%TO.C,C10*%
G36*
G01*
X180542000Y-97550500D02*
X180542000Y-96600500D01*
G75*
G02*
X180792000Y-96350500I250000J0D01*
G01*
X181292000Y-96350500D01*
G75*
G02*
X181542000Y-96600500I0J-250000D01*
G01*
X181542000Y-97550500D01*
G75*
G02*
X181292000Y-97800500I-250000J0D01*
G01*
X180792000Y-97800500D01*
G75*
G02*
X180542000Y-97550500I0J250000D01*
G01*
G37*
G36*
G01*
X178642000Y-97550500D02*
X178642000Y-96600500D01*
G75*
G02*
X178892000Y-96350500I250000J0D01*
G01*
X179392000Y-96350500D01*
G75*
G02*
X179642000Y-96600500I0J-250000D01*
G01*
X179642000Y-97550500D01*
G75*
G02*
X179392000Y-97800500I-250000J0D01*
G01*
X178892000Y-97800500D01*
G75*
G02*
X178642000Y-97550500I0J250000D01*
G01*
G37*
%TD*%
%TO.C,C9*%
G36*
G01*
X152642000Y-97050500D02*
X152642000Y-96100500D01*
G75*
G02*
X152892000Y-95850500I250000J0D01*
G01*
X153392000Y-95850500D01*
G75*
G02*
X153642000Y-96100500I0J-250000D01*
G01*
X153642000Y-97050500D01*
G75*
G02*
X153392000Y-97300500I-250000J0D01*
G01*
X152892000Y-97300500D01*
G75*
G02*
X152642000Y-97050500I0J250000D01*
G01*
G37*
G36*
G01*
X150742000Y-97050500D02*
X150742000Y-96100500D01*
G75*
G02*
X150992000Y-95850500I250000J0D01*
G01*
X151492000Y-95850500D01*
G75*
G02*
X151742000Y-96100500I0J-250000D01*
G01*
X151742000Y-97050500D01*
G75*
G02*
X151492000Y-97300500I-250000J0D01*
G01*
X150992000Y-97300500D01*
G75*
G02*
X150742000Y-97050500I0J250000D01*
G01*
G37*
%TD*%
%TO.C,C8*%
G36*
G01*
X167742000Y-71350500D02*
X167742000Y-70400500D01*
G75*
G02*
X167992000Y-70150500I250000J0D01*
G01*
X168492000Y-70150500D01*
G75*
G02*
X168742000Y-70400500I0J-250000D01*
G01*
X168742000Y-71350500D01*
G75*
G02*
X168492000Y-71600500I-250000J0D01*
G01*
X167992000Y-71600500D01*
G75*
G02*
X167742000Y-71350500I0J250000D01*
G01*
G37*
G36*
G01*
X165842000Y-71350500D02*
X165842000Y-70400500D01*
G75*
G02*
X166092000Y-70150500I250000J0D01*
G01*
X166592000Y-70150500D01*
G75*
G02*
X166842000Y-70400500I0J-250000D01*
G01*
X166842000Y-71350500D01*
G75*
G02*
X166592000Y-71600500I-250000J0D01*
G01*
X166092000Y-71600500D01*
G75*
G02*
X165842000Y-71350500I0J250000D01*
G01*
G37*
%TD*%
%TO.C,C7*%
G36*
G01*
X139442000Y-71450500D02*
X139442000Y-70500500D01*
G75*
G02*
X139692000Y-70250500I250000J0D01*
G01*
X140192000Y-70250500D01*
G75*
G02*
X140442000Y-70500500I0J-250000D01*
G01*
X140442000Y-71450500D01*
G75*
G02*
X140192000Y-71700500I-250000J0D01*
G01*
X139692000Y-71700500D01*
G75*
G02*
X139442000Y-71450500I0J250000D01*
G01*
G37*
G36*
G01*
X137542000Y-71450500D02*
X137542000Y-70500500D01*
G75*
G02*
X137792000Y-70250500I250000J0D01*
G01*
X138292000Y-70250500D01*
G75*
G02*
X138542000Y-70500500I0J-250000D01*
G01*
X138542000Y-71450500D01*
G75*
G02*
X138292000Y-71700500I-250000J0D01*
G01*
X137792000Y-71700500D01*
G75*
G02*
X137542000Y-71450500I0J250000D01*
G01*
G37*
%TD*%
%TO.C,C2*%
G36*
G01*
X208842000Y-71350500D02*
X208842000Y-70400500D01*
G75*
G02*
X209092000Y-70150500I250000J0D01*
G01*
X209592000Y-70150500D01*
G75*
G02*
X209842000Y-70400500I0J-250000D01*
G01*
X209842000Y-71350500D01*
G75*
G02*
X209592000Y-71600500I-250000J0D01*
G01*
X209092000Y-71600500D01*
G75*
G02*
X208842000Y-71350500I0J250000D01*
G01*
G37*
G36*
G01*
X206942000Y-71350500D02*
X206942000Y-70400500D01*
G75*
G02*
X207192000Y-70150500I250000J0D01*
G01*
X207692000Y-70150500D01*
G75*
G02*
X207942000Y-70400500I0J-250000D01*
G01*
X207942000Y-71350500D01*
G75*
G02*
X207692000Y-71600500I-250000J0D01*
G01*
X207192000Y-71600500D01*
G75*
G02*
X206942000Y-71350500I0J250000D01*
G01*
G37*
%TD*%
%TO.C,C1*%
G36*
G01*
X97542000Y-64450500D02*
X97542000Y-63500500D01*
G75*
G02*
X97792000Y-63250500I250000J0D01*
G01*
X98292000Y-63250500D01*
G75*
G02*
X98542000Y-63500500I0J-250000D01*
G01*
X98542000Y-64450500D01*
G75*
G02*
X98292000Y-64700500I-250000J0D01*
G01*
X97792000Y-64700500D01*
G75*
G02*
X97542000Y-64450500I0J250000D01*
G01*
G37*
G36*
G01*
X95642000Y-64450500D02*
X95642000Y-63500500D01*
G75*
G02*
X95892000Y-63250500I250000J0D01*
G01*
X96392000Y-63250500D01*
G75*
G02*
X96642000Y-63500500I0J-250000D01*
G01*
X96642000Y-64450500D01*
G75*
G02*
X96392000Y-64700500I-250000J0D01*
G01*
X95892000Y-64700500D01*
G75*
G02*
X95642000Y-64450500I0J250000D01*
G01*
G37*
%TD*%
D10*
%TO.C,SRAM1*%
X73042000Y-58425500D03*
X73042000Y-58925500D03*
X73042000Y-59425500D03*
X73042000Y-59925500D03*
X73042000Y-60425500D03*
X73042000Y-60925500D03*
X73042000Y-61425500D03*
X73042000Y-61925500D03*
X73042000Y-62425500D03*
X73042000Y-62925500D03*
X73042000Y-63425500D03*
X73042000Y-63925500D03*
X73042000Y-64425500D03*
X73042000Y-64925500D03*
X73042000Y-65425500D03*
X73042000Y-65925500D03*
X73042000Y-66425500D03*
X73042000Y-66925500D03*
X73042000Y-67425500D03*
X73042000Y-67925500D03*
X73042000Y-68425500D03*
X73042000Y-68925500D03*
X73042000Y-69425500D03*
X92542000Y-69925500D03*
X92542000Y-69425500D03*
X92542000Y-68925500D03*
X92542000Y-68425500D03*
X92542000Y-67925500D03*
X92542000Y-67425500D03*
X92542000Y-66925500D03*
X92542000Y-66425500D03*
X92542000Y-65925500D03*
X92542000Y-65425500D03*
X92542000Y-64925500D03*
X92542000Y-64425500D03*
X92542000Y-63925500D03*
X92542000Y-63425500D03*
X92542000Y-62925500D03*
X92542000Y-62425500D03*
X92542000Y-61925500D03*
X92542000Y-61425500D03*
X92542000Y-60925500D03*
X92542000Y-60425500D03*
X92542000Y-59925500D03*
X92542000Y-59425500D03*
X92542000Y-58925500D03*
X73042000Y-69925500D03*
X92542000Y-58425500D03*
%TD*%
M02*
