%TF.GenerationSoftware,KiCad,Pcbnew,(5.1.7)-1*%
%TF.CreationDate,2021-09-17T17:18:02+01:00*%
%TF.ProjectId,Apricot-Expansion-RAM,41707269-636f-4742-9d45-7870616e7369,rev?*%
%TF.SameCoordinates,Original*%
%TF.FileFunction,Soldermask,Bot*%
%TF.FilePolarity,Negative*%
%FSLAX46Y46*%
G04 Gerber Fmt 4.6, Leading zero omitted, Abs format (unit mm)*
G04 Created by KiCad (PCBNEW (5.1.7)-1) date 2021-09-17 17:18:02*
%MOMM*%
%LPD*%
G01*
G04 APERTURE LIST*
%ADD10O,1.700000X1.700000*%
%ADD11R,1.700000X1.700000*%
%ADD12O,1.600000X1.600000*%
%ADD13R,1.600000X1.600000*%
%ADD14R,1.100000X0.250000*%
%ADD15C,2.000000*%
%ADD16C,2.850000*%
%ADD17C,1.550000*%
G04 APERTURE END LIST*
D10*
%TO.C,SEL1*%
X209672000Y-106176000D03*
X207132000Y-106176000D03*
D11*
X204592000Y-106176000D03*
%TD*%
%TO.C,C11*%
G36*
G01*
X208842000Y-97550500D02*
X208842000Y-96600500D01*
G75*
G02*
X209092000Y-96350500I250000J0D01*
G01*
X209592000Y-96350500D01*
G75*
G02*
X209842000Y-96600500I0J-250000D01*
G01*
X209842000Y-97550500D01*
G75*
G02*
X209592000Y-97800500I-250000J0D01*
G01*
X209092000Y-97800500D01*
G75*
G02*
X208842000Y-97550500I0J250000D01*
G01*
G37*
G36*
G01*
X206942000Y-97550500D02*
X206942000Y-96600500D01*
G75*
G02*
X207192000Y-96350500I250000J0D01*
G01*
X207692000Y-96350500D01*
G75*
G02*
X207942000Y-96600500I0J-250000D01*
G01*
X207942000Y-97550500D01*
G75*
G02*
X207692000Y-97800500I-250000J0D01*
G01*
X207192000Y-97800500D01*
G75*
G02*
X206942000Y-97550500I0J250000D01*
G01*
G37*
%TD*%
%TO.C,C10*%
G36*
G01*
X180542000Y-97550500D02*
X180542000Y-96600500D01*
G75*
G02*
X180792000Y-96350500I250000J0D01*
G01*
X181292000Y-96350500D01*
G75*
G02*
X181542000Y-96600500I0J-250000D01*
G01*
X181542000Y-97550500D01*
G75*
G02*
X181292000Y-97800500I-250000J0D01*
G01*
X180792000Y-97800500D01*
G75*
G02*
X180542000Y-97550500I0J250000D01*
G01*
G37*
G36*
G01*
X178642000Y-97550500D02*
X178642000Y-96600500D01*
G75*
G02*
X178892000Y-96350500I250000J0D01*
G01*
X179392000Y-96350500D01*
G75*
G02*
X179642000Y-96600500I0J-250000D01*
G01*
X179642000Y-97550500D01*
G75*
G02*
X179392000Y-97800500I-250000J0D01*
G01*
X178892000Y-97800500D01*
G75*
G02*
X178642000Y-97550500I0J250000D01*
G01*
G37*
%TD*%
%TO.C,C9*%
G36*
G01*
X152642000Y-97050500D02*
X152642000Y-96100500D01*
G75*
G02*
X152892000Y-95850500I250000J0D01*
G01*
X153392000Y-95850500D01*
G75*
G02*
X153642000Y-96100500I0J-250000D01*
G01*
X153642000Y-97050500D01*
G75*
G02*
X153392000Y-97300500I-250000J0D01*
G01*
X152892000Y-97300500D01*
G75*
G02*
X152642000Y-97050500I0J250000D01*
G01*
G37*
G36*
G01*
X150742000Y-97050500D02*
X150742000Y-96100500D01*
G75*
G02*
X150992000Y-95850500I250000J0D01*
G01*
X151492000Y-95850500D01*
G75*
G02*
X151742000Y-96100500I0J-250000D01*
G01*
X151742000Y-97050500D01*
G75*
G02*
X151492000Y-97300500I-250000J0D01*
G01*
X150992000Y-97300500D01*
G75*
G02*
X150742000Y-97050500I0J250000D01*
G01*
G37*
%TD*%
%TO.C,C8*%
G36*
G01*
X167742000Y-71350500D02*
X167742000Y-70400500D01*
G75*
G02*
X167992000Y-70150500I250000J0D01*
G01*
X168492000Y-70150500D01*
G75*
G02*
X168742000Y-70400500I0J-250000D01*
G01*
X168742000Y-71350500D01*
G75*
G02*
X168492000Y-71600500I-250000J0D01*
G01*
X167992000Y-71600500D01*
G75*
G02*
X167742000Y-71350500I0J250000D01*
G01*
G37*
G36*
G01*
X165842000Y-71350500D02*
X165842000Y-70400500D01*
G75*
G02*
X166092000Y-70150500I250000J0D01*
G01*
X166592000Y-70150500D01*
G75*
G02*
X166842000Y-70400500I0J-250000D01*
G01*
X166842000Y-71350500D01*
G75*
G02*
X166592000Y-71600500I-250000J0D01*
G01*
X166092000Y-71600500D01*
G75*
G02*
X165842000Y-71350500I0J250000D01*
G01*
G37*
%TD*%
%TO.C,C7*%
G36*
G01*
X139442000Y-71450500D02*
X139442000Y-70500500D01*
G75*
G02*
X139692000Y-70250500I250000J0D01*
G01*
X140192000Y-70250500D01*
G75*
G02*
X140442000Y-70500500I0J-250000D01*
G01*
X140442000Y-71450500D01*
G75*
G02*
X140192000Y-71700500I-250000J0D01*
G01*
X139692000Y-71700500D01*
G75*
G02*
X139442000Y-71450500I0J250000D01*
G01*
G37*
G36*
G01*
X137542000Y-71450500D02*
X137542000Y-70500500D01*
G75*
G02*
X137792000Y-70250500I250000J0D01*
G01*
X138292000Y-70250500D01*
G75*
G02*
X138542000Y-70500500I0J-250000D01*
G01*
X138542000Y-71450500D01*
G75*
G02*
X138292000Y-71700500I-250000J0D01*
G01*
X137792000Y-71700500D01*
G75*
G02*
X137542000Y-71450500I0J250000D01*
G01*
G37*
%TD*%
%TO.C,C2*%
G36*
G01*
X208842000Y-71350500D02*
X208842000Y-70400500D01*
G75*
G02*
X209092000Y-70150500I250000J0D01*
G01*
X209592000Y-70150500D01*
G75*
G02*
X209842000Y-70400500I0J-250000D01*
G01*
X209842000Y-71350500D01*
G75*
G02*
X209592000Y-71600500I-250000J0D01*
G01*
X209092000Y-71600500D01*
G75*
G02*
X208842000Y-71350500I0J250000D01*
G01*
G37*
G36*
G01*
X206942000Y-71350500D02*
X206942000Y-70400500D01*
G75*
G02*
X207192000Y-70150500I250000J0D01*
G01*
X207692000Y-70150500D01*
G75*
G02*
X207942000Y-70400500I0J-250000D01*
G01*
X207942000Y-71350500D01*
G75*
G02*
X207692000Y-71600500I-250000J0D01*
G01*
X207192000Y-71600500D01*
G75*
G02*
X206942000Y-71350500I0J250000D01*
G01*
G37*
%TD*%
%TO.C,C1*%
G36*
G01*
X97542000Y-64450500D02*
X97542000Y-63500500D01*
G75*
G02*
X97792000Y-63250500I250000J0D01*
G01*
X98292000Y-63250500D01*
G75*
G02*
X98542000Y-63500500I0J-250000D01*
G01*
X98542000Y-64450500D01*
G75*
G02*
X98292000Y-64700500I-250000J0D01*
G01*
X97792000Y-64700500D01*
G75*
G02*
X97542000Y-64450500I0J250000D01*
G01*
G37*
G36*
G01*
X95642000Y-64450500D02*
X95642000Y-63500500D01*
G75*
G02*
X95892000Y-63250500I250000J0D01*
G01*
X96392000Y-63250500D01*
G75*
G02*
X96642000Y-63500500I0J-250000D01*
G01*
X96642000Y-64450500D01*
G75*
G02*
X96392000Y-64700500I-250000J0D01*
G01*
X95892000Y-64700500D01*
G75*
G02*
X95642000Y-64450500I0J250000D01*
G01*
G37*
%TD*%
D12*
%TO.C,SRAM-Socket1*%
X118532000Y-51875500D03*
X103292000Y-110295500D03*
X118532000Y-54415500D03*
X103292000Y-107755500D03*
X118532000Y-56955500D03*
X103292000Y-105215500D03*
X118532000Y-59495500D03*
X103292000Y-102675500D03*
X118532000Y-62035500D03*
X103292000Y-100135500D03*
X118532000Y-64575500D03*
X103292000Y-97595500D03*
X118532000Y-67115500D03*
X103292000Y-95055500D03*
X118532000Y-69655500D03*
X103292000Y-92515500D03*
X118532000Y-72195500D03*
X103292000Y-89975500D03*
X118532000Y-74735500D03*
X103292000Y-87435500D03*
X118532000Y-77275500D03*
X103292000Y-84895500D03*
X118532000Y-79815500D03*
X103292000Y-82355500D03*
X118532000Y-82355500D03*
X103292000Y-79815500D03*
X118532000Y-84895500D03*
X103292000Y-77275500D03*
X118532000Y-87435500D03*
X103292000Y-74735500D03*
X118532000Y-89975500D03*
X103292000Y-72195500D03*
X118532000Y-92515500D03*
X103292000Y-69655500D03*
X118532000Y-95055500D03*
X103292000Y-67115500D03*
X118532000Y-97595500D03*
X103292000Y-64575500D03*
X118532000Y-100135500D03*
X103292000Y-62035500D03*
X118532000Y-102675500D03*
X103292000Y-59495500D03*
X118532000Y-105215500D03*
X103292000Y-56955500D03*
X118532000Y-107755500D03*
X103292000Y-54415500D03*
X118532000Y-110295500D03*
D13*
X103292000Y-51875500D03*
%TD*%
D14*
%TO.C,SRAM1*%
X73042000Y-58425500D03*
X73042000Y-58925500D03*
X73042000Y-59425500D03*
X73042000Y-59925500D03*
X73042000Y-60425500D03*
X73042000Y-60925500D03*
X73042000Y-61425500D03*
X73042000Y-61925500D03*
X73042000Y-62425500D03*
X73042000Y-62925500D03*
X73042000Y-63425500D03*
X73042000Y-63925500D03*
X73042000Y-64425500D03*
X73042000Y-64925500D03*
X73042000Y-65425500D03*
X73042000Y-65925500D03*
X73042000Y-66425500D03*
X73042000Y-66925500D03*
X73042000Y-67425500D03*
X73042000Y-67925500D03*
X73042000Y-68425500D03*
X73042000Y-68925500D03*
X73042000Y-69425500D03*
X92542000Y-69925500D03*
X92542000Y-69425500D03*
X92542000Y-68925500D03*
X92542000Y-68425500D03*
X92542000Y-67925500D03*
X92542000Y-67425500D03*
X92542000Y-66925500D03*
X92542000Y-66425500D03*
X92542000Y-65925500D03*
X92542000Y-65425500D03*
X92542000Y-64925500D03*
X92542000Y-64425500D03*
X92542000Y-63925500D03*
X92542000Y-63425500D03*
X92542000Y-62925500D03*
X92542000Y-62425500D03*
X92542000Y-61925500D03*
X92542000Y-61425500D03*
X92542000Y-60925500D03*
X92542000Y-60425500D03*
X92542000Y-59925500D03*
X92542000Y-59425500D03*
X92542000Y-58925500D03*
X73042000Y-69925500D03*
X92542000Y-58425500D03*
%TD*%
D12*
%TO.C,SBDT2*%
X166392000Y-67155500D03*
X189252000Y-74775500D03*
X168932000Y-67155500D03*
X186712000Y-74775500D03*
X171472000Y-67155500D03*
X184172000Y-74775500D03*
X174012000Y-67155500D03*
X181632000Y-74775500D03*
X176552000Y-67155500D03*
X179092000Y-74775500D03*
X179092000Y-67155500D03*
X176552000Y-74775500D03*
X181632000Y-67155500D03*
X174012000Y-74775500D03*
X184172000Y-67155500D03*
X171472000Y-74775500D03*
X186712000Y-67155500D03*
X168932000Y-74775500D03*
X189252000Y-67155500D03*
D13*
X166392000Y-74775500D03*
%TD*%
D12*
%TO.C,SBDT1*%
X137492000Y-67155500D03*
X160352000Y-74775500D03*
X140032000Y-67155500D03*
X157812000Y-74775500D03*
X142572000Y-67155500D03*
X155272000Y-74775500D03*
X145112000Y-67155500D03*
X152732000Y-74775500D03*
X147652000Y-67155500D03*
X150192000Y-74775500D03*
X150192000Y-67155500D03*
X147652000Y-74775500D03*
X152732000Y-67155500D03*
X145112000Y-74775500D03*
X155272000Y-67155500D03*
X142572000Y-74775500D03*
X157812000Y-67155500D03*
X140032000Y-74775500D03*
X160352000Y-67155500D03*
D13*
X137492000Y-74775500D03*
%TD*%
D12*
%TO.C,RAM-Decoder1*%
X207492000Y-67155500D03*
X230352000Y-74775500D03*
X210032000Y-67155500D03*
X227812000Y-74775500D03*
X212572000Y-67155500D03*
X225272000Y-74775500D03*
X215112000Y-67155500D03*
X222732000Y-74775500D03*
X217652000Y-67155500D03*
X220192000Y-74775500D03*
X220192000Y-67155500D03*
X217652000Y-74775500D03*
X222732000Y-67155500D03*
X215112000Y-74775500D03*
X225272000Y-67155500D03*
X212572000Y-74775500D03*
X227812000Y-67155500D03*
X210032000Y-74775500D03*
X230352000Y-67155500D03*
D13*
X207492000Y-74775500D03*
%TD*%
D12*
%TO.C,DP2*%
X129992000Y-82156000D03*
X129992000Y-84696000D03*
X129992000Y-87236000D03*
X129992000Y-89776000D03*
X129992000Y-92316000D03*
X129992000Y-94856000D03*
X129992000Y-97396000D03*
X129992000Y-99936000D03*
D13*
X129992000Y-102476000D03*
%TD*%
D12*
%TO.C,DP1*%
X129992000Y-55655500D03*
X129992000Y-58195500D03*
X129992000Y-60735500D03*
X129992000Y-63275500D03*
X129992000Y-65815500D03*
X129992000Y-68355500D03*
X129992000Y-70895500D03*
X129992000Y-73435500D03*
D13*
X129992000Y-75975500D03*
%TD*%
D12*
%TO.C,AP3*%
X228812000Y-87675500D03*
X226272000Y-87675500D03*
X223732000Y-87675500D03*
X221192000Y-87675500D03*
X218652000Y-87675500D03*
X216112000Y-87675500D03*
X213572000Y-87675500D03*
X211032000Y-87675500D03*
D13*
X208492000Y-87675500D03*
%TD*%
D12*
%TO.C,AP2*%
X200812000Y-87775500D03*
X198272000Y-87775500D03*
X195732000Y-87775500D03*
X193192000Y-87775500D03*
X190652000Y-87775500D03*
X188112000Y-87775500D03*
X185572000Y-87775500D03*
X183032000Y-87775500D03*
D13*
X180492000Y-87775500D03*
%TD*%
D12*
%TO.C,AP1*%
X172912000Y-87875500D03*
X170372000Y-87875500D03*
X167832000Y-87875500D03*
X165292000Y-87875500D03*
X162752000Y-87875500D03*
X160212000Y-87875500D03*
X157672000Y-87875500D03*
X155132000Y-87875500D03*
D13*
X152592000Y-87875500D03*
%TD*%
D12*
%TO.C,ALATCH3*%
X207392000Y-93256000D03*
X230252000Y-100876000D03*
X209932000Y-93256000D03*
X227712000Y-100876000D03*
X212472000Y-93256000D03*
X225172000Y-100876000D03*
X215012000Y-93256000D03*
X222632000Y-100876000D03*
X217552000Y-93256000D03*
X220092000Y-100876000D03*
X220092000Y-93256000D03*
X217552000Y-100876000D03*
X222632000Y-93256000D03*
X215012000Y-100876000D03*
X225172000Y-93256000D03*
X212472000Y-100876000D03*
X227712000Y-93256000D03*
X209932000Y-100876000D03*
X230252000Y-93256000D03*
D13*
X207392000Y-100876000D03*
%TD*%
D12*
%TO.C,ALATCH2*%
X179292000Y-93356000D03*
X202152000Y-100976000D03*
X181832000Y-93356000D03*
X199612000Y-100976000D03*
X184372000Y-93356000D03*
X197072000Y-100976000D03*
X186912000Y-93356000D03*
X194532000Y-100976000D03*
X189452000Y-93356000D03*
X191992000Y-100976000D03*
X191992000Y-93356000D03*
X189452000Y-100976000D03*
X194532000Y-93356000D03*
X186912000Y-100976000D03*
X197072000Y-93356000D03*
X184372000Y-100976000D03*
X199612000Y-93356000D03*
X181832000Y-100976000D03*
X202152000Y-93356000D03*
D13*
X179292000Y-100976000D03*
%TD*%
D12*
%TO.C,ALATCH1*%
X151192000Y-93156000D03*
X174052000Y-100776000D03*
X153732000Y-93156000D03*
X171512000Y-100776000D03*
X156272000Y-93156000D03*
X168972000Y-100776000D03*
X158812000Y-93156000D03*
X166432000Y-100776000D03*
X161352000Y-93156000D03*
X163892000Y-100776000D03*
X163892000Y-93156000D03*
X161352000Y-100776000D03*
X166432000Y-93156000D03*
X158812000Y-100776000D03*
X168972000Y-93156000D03*
X156272000Y-100776000D03*
X171512000Y-93156000D03*
X153732000Y-100776000D03*
X174052000Y-93156000D03*
D13*
X151192000Y-100776000D03*
%TD*%
D15*
%TO.C,JV-2*%
X83292000Y-95075500D03*
X78292000Y-95075500D03*
X83292000Y-87575500D03*
X78292000Y-87575500D03*
X83292000Y-102575500D03*
X78292000Y-102575500D03*
X80792000Y-100075500D03*
X80792000Y-90075500D03*
X68292000Y-90075500D03*
X68292000Y-100075500D03*
%TD*%
D10*
%TO.C,JV-1*%
X77532000Y-115276000D03*
X80072000Y-115276000D03*
X82612000Y-115276000D03*
X85152000Y-115276000D03*
D11*
X87692000Y-115276000D03*
%TD*%
D16*
%TO.C,CONN2*%
X230762000Y-49335500D03*
X140762000Y-49335500D03*
D17*
X225132000Y-49035500D03*
X222592000Y-49035500D03*
X220052000Y-49035500D03*
X217512000Y-49035500D03*
X214972000Y-49035500D03*
X212432000Y-49035500D03*
X209892000Y-49035500D03*
X207352000Y-49035500D03*
X204812000Y-49035500D03*
X202272000Y-49035500D03*
X199732000Y-49035500D03*
X197192000Y-49035500D03*
X194652000Y-49035500D03*
X192112000Y-49035500D03*
X189572000Y-49035500D03*
X187032000Y-49035500D03*
X184492000Y-49035500D03*
X181952000Y-49035500D03*
X179412000Y-49035500D03*
X176872000Y-49035500D03*
X174332000Y-49035500D03*
X171792000Y-49035500D03*
X169252000Y-49035500D03*
X166712000Y-49035500D03*
X164172000Y-49035500D03*
X161632000Y-49035500D03*
X159092000Y-49035500D03*
X156552000Y-49035500D03*
X154012000Y-49035500D03*
X151472000Y-49035500D03*
X148932000Y-49035500D03*
X146392000Y-49035500D03*
X225132000Y-51575500D03*
X222592000Y-51575500D03*
X220052000Y-51575500D03*
X217512000Y-51575500D03*
X214972000Y-51575500D03*
X212432000Y-51575500D03*
X209892000Y-51575500D03*
X207352000Y-51575500D03*
X204812000Y-51575500D03*
X202272000Y-51575500D03*
X199732000Y-51575500D03*
X197192000Y-51575500D03*
X194652000Y-51575500D03*
X192112000Y-51575500D03*
X189572000Y-51575500D03*
X187032000Y-51575500D03*
X184492000Y-51575500D03*
X181952000Y-51575500D03*
X179412000Y-51575500D03*
X176872000Y-51575500D03*
X174332000Y-51575500D03*
X171792000Y-51575500D03*
X169252000Y-51575500D03*
X166712000Y-51575500D03*
X164172000Y-51575500D03*
X161632000Y-51575500D03*
X159092000Y-51575500D03*
X156552000Y-51575500D03*
X154012000Y-51575500D03*
X151472000Y-51575500D03*
X148932000Y-51575500D03*
G36*
G01*
X146917001Y-52350500D02*
X145866999Y-52350500D01*
G75*
G02*
X145617000Y-52100501I0J249999D01*
G01*
X145617000Y-51050499D01*
G75*
G02*
X145866999Y-50800500I249999J0D01*
G01*
X146917001Y-50800500D01*
G75*
G02*
X147167000Y-51050499I0J-249999D01*
G01*
X147167000Y-52100501D01*
G75*
G02*
X146917001Y-52350500I-249999J0D01*
G01*
G37*
%TD*%
%TO.C,CONN1*%
X131972000Y-110496000D03*
X134512000Y-110496000D03*
X137052000Y-110496000D03*
X139592000Y-110496000D03*
X142132000Y-110496000D03*
X144672000Y-110496000D03*
X147212000Y-110496000D03*
X149752000Y-110496000D03*
X152292000Y-110496000D03*
X154832000Y-110496000D03*
X157372000Y-110496000D03*
X159912000Y-110496000D03*
X162452000Y-110496000D03*
X164992000Y-110496000D03*
X167532000Y-110496000D03*
X170072000Y-110496000D03*
X172612000Y-110496000D03*
X175152000Y-110496000D03*
X177692000Y-110496000D03*
X180232000Y-110496000D03*
X182772000Y-110496000D03*
X185312000Y-110496000D03*
X187852000Y-110496000D03*
X190392000Y-110496000D03*
X192932000Y-110496000D03*
X195472000Y-110496000D03*
X198012000Y-110496000D03*
X200552000Y-110496000D03*
X203092000Y-110496000D03*
X205632000Y-110496000D03*
X208172000Y-110496000D03*
X210712000Y-110496000D03*
X131972000Y-113036000D03*
X134512000Y-113036000D03*
X137052000Y-113036000D03*
X139592000Y-113036000D03*
X142132000Y-113036000D03*
X144672000Y-113036000D03*
X147212000Y-113036000D03*
X149752000Y-113036000D03*
X152292000Y-113036000D03*
X154832000Y-113036000D03*
X157372000Y-113036000D03*
X159912000Y-113036000D03*
X162452000Y-113036000D03*
X164992000Y-113036000D03*
X167532000Y-113036000D03*
X170072000Y-113036000D03*
X172612000Y-113036000D03*
X175152000Y-113036000D03*
X177692000Y-113036000D03*
X180232000Y-113036000D03*
X182772000Y-113036000D03*
X185312000Y-113036000D03*
X187852000Y-113036000D03*
X190392000Y-113036000D03*
X192932000Y-113036000D03*
X195472000Y-113036000D03*
X198012000Y-113036000D03*
X200552000Y-113036000D03*
X203092000Y-113036000D03*
X205632000Y-113036000D03*
X208172000Y-113036000D03*
G36*
G01*
X211487000Y-112510999D02*
X211487000Y-113561001D01*
G75*
G02*
X211237001Y-113811000I-249999J0D01*
G01*
X210186999Y-113811000D01*
G75*
G02*
X209937000Y-113561001I0J249999D01*
G01*
X209937000Y-112510999D01*
G75*
G02*
X210186999Y-112261000I249999J0D01*
G01*
X211237001Y-112261000D01*
G75*
G02*
X211487000Y-112510999I0J-249999D01*
G01*
G37*
D16*
X126892000Y-115576000D03*
X215792000Y-115576000D03*
%TD*%
M02*
