M48
METRIC,TZ
T1C0.400
T2C0.800
T3C1.000
T4C1.200
%
G90
G05
T1
X76328Y-59164
X84492Y-52676
X89092Y-82676
X89792Y-60876
X91692Y-96076
X91892Y-73976
X93762Y-81256
X93778Y-86080
X94773Y-81230
X94804Y-84473
X94806Y-86080
X96294Y-62631
X97793Y-66972
X98392Y-55876
X99156Y-64559
X105592Y-96876
X106192Y-89976
X106892Y-92376
X107092Y-104576
X109459Y-106146
X109592Y-93776
X111192Y-102876
X111692Y-95176
X111692Y-97676
X111792Y-99876
X113787Y-101664
X114792Y-51576
X114810Y-54699
X116048Y-57394
X116492Y-55076
X119092Y-49676
X121677Y-76805
X124267Y-93586
X124792Y-102476
X125937Y-72051
X126492Y-110276
X126745Y-71037
X127437Y-82981
X128421Y-56307
X129052Y-78633
X131592Y-50476
X132879Y-60113
X132940Y-62594
X133592Y-102476
X133692Y-105876
X133872Y-93296
X134992Y-54376
X135875Y-68678
X142222Y-69114
X147192Y-105276
X147292Y-89276
X147925Y-98520
X149776Y-106431
X152559Y-82885
X155292Y-103176
X155562Y-80930
X157334Y-81479
X157894Y-84344
X157925Y-80478
X159804Y-78664
X161487Y-58265
X162413Y-104641
X163235Y-103806
X165392Y-105376
X166492Y-78676
X166513Y-90833
X167662Y-73361
X167960Y-99765
X168373Y-104533
X168992Y-78776
X169711Y-64771
X171603Y-106602
X171618Y-105590
X172749Y-105144
X173023Y-73650
X173178Y-69480
X175123Y-108961
X176789Y-87186
X180282Y-107367
X183969Y-108401
X184092Y-78476
X184292Y-71476
X184677Y-109109
X185181Y-89361
X186170Y-102892
X186386Y-96628
X186592Y-71376
X192432Y-103919
X192892Y-81976
X192948Y-96954
X194032Y-112161
X194192Y-66176
X194892Y-97976
X197248Y-61763
X197292Y-95776
X197525Y-74579
X199792Y-98776
X200453Y-74949
X200580Y-53338
X201392Y-80576
X201488Y-60858
X202411Y-74933
X203089Y-63174
X205437Y-64777
X206174Y-70927
X206192Y-56476
X206292Y-91176
X208631Y-69329
X209592Y-90876
X211192Y-57876
X212292Y-96676
X212292Y-103376
X212592Y-116276
X212792Y-79376
X215092Y-61976
X217792Y-77276
X218392Y-90776
X218692Y-70776
X220092Y-77876
X221155Y-98971
X222092Y-84276
X222692Y-78476
X225092Y-62176
X226060Y-102153
X226307Y-98066
X226892Y-56876
X229192Y-54776
T2
X103292Y-51876
X103292Y-54415
X103292Y-56956
X103292Y-59496
X103292Y-62036
X103292Y-64575
X103292Y-67116
X103292Y-69656
X103292Y-72196
X103292Y-74736
X103292Y-77276
X103292Y-79816
X103292Y-82356
X103292Y-84896
X103292Y-87436
X103292Y-89976
X103292Y-92516
X103292Y-95056
X103292Y-97596
X103292Y-100136
X103292Y-102676
X103292Y-105216
X103292Y-107756
X103292Y-110296
X118532Y-51876
X118532Y-54415
X118532Y-56956
X118532Y-59496
X118532Y-62036
X118532Y-64575
X118532Y-67116
X118532Y-69656
X118532Y-72196
X118532Y-74736
X118532Y-77276
X118532Y-79816
X118532Y-82356
X118532Y-84896
X118532Y-87436
X118532Y-89976
X118532Y-92516
X118532Y-95056
X118532Y-97596
X118532Y-100136
X118532Y-102676
X118532Y-105216
X118532Y-107756
X118532Y-110296
X152592Y-87876
X155132Y-87876
X157672Y-87876
X160212Y-87876
X162752Y-87876
X165292Y-87876
X167832Y-87876
X170372Y-87876
X172912Y-87876
X179292Y-93356
X179292Y-100976
X181832Y-93356
X181832Y-100976
X184372Y-93356
X184372Y-100976
X186912Y-93356
X186912Y-100976
X189452Y-93356
X189452Y-100976
X191992Y-93356
X191992Y-100976
X194532Y-93356
X194532Y-100976
X197072Y-93356
X197072Y-100976
X199612Y-93356
X199612Y-100976
X202152Y-93356
X202152Y-100976
X180492Y-87776
X183032Y-87776
X185572Y-87776
X188112Y-87776
X190652Y-87776
X193192Y-87776
X195732Y-87776
X198272Y-87776
X200812Y-87776
X137492Y-67156
X137492Y-74776
X140032Y-67156
X140032Y-74776
X142572Y-67156
X142572Y-74776
X145112Y-67156
X145112Y-74776
X147652Y-67156
X147652Y-74776
X150192Y-67156
X150192Y-74776
X152732Y-67156
X152732Y-74776
X155272Y-67156
X155272Y-74776
X157812Y-67156
X157812Y-74776
X160352Y-67156
X160352Y-74776
X207392Y-93256
X207392Y-100876
X209932Y-93256
X209932Y-100876
X212472Y-93256
X212472Y-100876
X215012Y-93256
X215012Y-100876
X217552Y-93256
X217552Y-100876
X220092Y-93256
X220092Y-100876
X222632Y-93256
X222632Y-100876
X225172Y-93256
X225172Y-100876
X227712Y-93256
X227712Y-100876
X230252Y-93256
X230252Y-100876
X129992Y-82156
X129992Y-84696
X129992Y-87236
X129992Y-89776
X129992Y-92316
X129992Y-94856
X129992Y-97396
X129992Y-99936
X129992Y-102476
X129992Y-55655
X129992Y-58195
X129992Y-60735
X129992Y-63275
X129992Y-65816
X129992Y-68356
X129992Y-70896
X129992Y-73436
X129992Y-75976
X166392Y-67156
X166392Y-74776
X168932Y-67156
X168932Y-74776
X171472Y-67156
X171472Y-74776
X174012Y-67156
X174012Y-74776
X176552Y-67156
X176552Y-74776
X179092Y-67156
X179092Y-74776
X181632Y-67156
X181632Y-74776
X184172Y-67156
X184172Y-74776
X186712Y-67156
X186712Y-74776
X189252Y-67156
X189252Y-74776
X207492Y-67156
X207492Y-74776
X210032Y-67156
X210032Y-74776
X212572Y-67156
X212572Y-74776
X215112Y-67156
X215112Y-74776
X217652Y-67156
X217652Y-74776
X220192Y-67156
X220192Y-74776
X222732Y-67156
X222732Y-74776
X225272Y-67156
X225272Y-74776
X227812Y-67156
X227812Y-74776
X230352Y-67156
X230352Y-74776
X208492Y-87676
X211032Y-87676
X213572Y-87676
X216112Y-87676
X218652Y-87676
X221192Y-87676
X223732Y-87676
X226272Y-87676
X228812Y-87676
X151192Y-93156
X151192Y-100776
X153732Y-93156
X153732Y-100776
X156272Y-93156
X156272Y-100776
X158812Y-93156
X158812Y-100776
X161352Y-93156
X161352Y-100776
X163892Y-93156
X163892Y-100776
X166432Y-93156
X166432Y-100776
X168972Y-93156
X168972Y-100776
X171512Y-93156
X171512Y-100776
X174052Y-93156
X174052Y-100776
T3
X146392Y-49036
X146392Y-51576
X148932Y-49036
X148932Y-51576
X151472Y-49036
X151472Y-51576
X154012Y-49036
X154012Y-51576
X156552Y-49036
X156552Y-51576
X159092Y-49036
X159092Y-51576
X161632Y-49036
X161632Y-51576
X164172Y-49036
X164172Y-51576
X166712Y-49036
X166712Y-51576
X169252Y-49036
X169252Y-51576
X171792Y-49036
X171792Y-51576
X174332Y-49036
X174332Y-51576
X176872Y-49036
X176872Y-51576
X179412Y-49036
X179412Y-51576
X181952Y-49036
X181952Y-51576
X184492Y-49036
X184492Y-51576
X187032Y-49036
X187032Y-51576
X189572Y-49036
X189572Y-51576
X192112Y-49036
X192112Y-51576
X194652Y-49036
X194652Y-51576
X197192Y-49036
X197192Y-51576
X199732Y-49036
X199732Y-51576
X202272Y-49036
X202272Y-51576
X204812Y-49036
X204812Y-51576
X207352Y-49036
X207352Y-51576
X209892Y-49036
X209892Y-51576
X212432Y-49036
X212432Y-51576
X214972Y-49036
X214972Y-51576
X217512Y-49036
X217512Y-51576
X220052Y-49036
X220052Y-51576
X222592Y-49036
X222592Y-51576
X225132Y-49036
X225132Y-51576
X131972Y-110496
X131972Y-113036
X134512Y-110496
X134512Y-113036
X137052Y-110496
X137052Y-113036
X139592Y-110496
X139592Y-113036
X142132Y-110496
X142132Y-113036
X144672Y-110496
X144672Y-113036
X147212Y-110496
X147212Y-113036
X149752Y-110496
X149752Y-113036
X152292Y-110496
X152292Y-113036
X154832Y-110496
X154832Y-113036
X157372Y-110496
X157372Y-113036
X159912Y-110496
X159912Y-113036
X162452Y-110496
X162452Y-113036
X164992Y-110496
X164992Y-113036
X167532Y-110496
X167532Y-113036
X170072Y-110496
X170072Y-113036
X172612Y-110496
X172612Y-113036
X175152Y-110496
X175152Y-113036
X177692Y-110496
X177692Y-113036
X180232Y-110496
X180232Y-113036
X182772Y-110496
X182772Y-113036
X185312Y-110496
X185312Y-113036
X187852Y-110496
X187852Y-113036
X190392Y-110496
X190392Y-113036
X192932Y-110496
X192932Y-113036
X195472Y-110496
X195472Y-113036
X198012Y-110496
X198012Y-113036
X200552Y-110496
X200552Y-113036
X203092Y-110496
X203092Y-113036
X205632Y-110496
X205632Y-113036
X208172Y-110496
X208172Y-113036
X210712Y-110496
X210712Y-113036
X77532Y-115276
X80072Y-115276
X82612Y-115276
X85152Y-115276
X87692Y-115276
X204592Y-106176
X207132Y-106176
X209672Y-106176
T4
X68292Y-90076
X68292Y-100076
X78292Y-87576
X78292Y-95076
X78292Y-102576
X80792Y-90076
X80792Y-100076
X83292Y-87576
X83292Y-95076
X83292Y-102576
T0
M30
